<?xml version="1.0" encoding="utf-8"?>
<!-- Generator: Adobe Illustrator 14.0.0, SVG Export Plug-In . SVG Version: 6.00 Build 43363)  -->
<!DOCTYPE svg PUBLIC "-//W3C//DTD SVG 1.1//EN" "http://www.w3.org/Graphics/SVG/1.1/DTD/svg11.dtd">
<svg version="1.1" id="Vrstva_1" xmlns="http://www.w3.org/2000/svg" xmlns:xlink="http://www.w3.org/1999/xlink" x="0px" y="0px"
	 width="432.402px" height="131.272px" viewBox="0 0 432.402 131.272" enable-background="new 0 0 432.402 131.272"
	 xml:space="preserve">
<g>
	<path fill="#009EE0" d="M13.205,1.98c0,0-11.225,0-11.225,11.225v104.862c0,0,0,11.225,11.225,11.225h189.726
		c0,0,11.225,0,11.225-11.225V13.205c0,0,0-11.225-11.225-11.225H13.205z"/>
	<path fill="#009EE0" d="M13.205,1.98V0C13.04,0.011,9.991-0.013,6.707,1.612c-1.635,0.816-3.34,2.083-4.621,4.005
		C0.802,7.535-0.006,10.073,0,13.205v104.862c0.011,0.165-0.013,3.214,1.612,6.498c0.816,1.635,2.083,3.34,4.005,4.62
		c1.918,1.284,4.456,2.092,7.588,2.087h189.726c0.165-0.011,3.214,0.012,6.498-1.612c1.635-0.816,3.34-2.083,4.621-4.005
		c1.285-1.918,2.092-4.455,2.086-7.588V13.205c-0.011-0.165,0.013-3.214-1.612-6.498c-0.816-1.635-2.083-3.34-4.005-4.621
		c-1.918-1.285-4.456-2.092-7.588-2.086H13.205V1.98v1.98h189.726c2.48,0.006,4.152,0.602,5.391,1.421
		c0.928,0.62,1.626,1.391,2.17,2.235c0.815,1.262,1.256,2.696,1.471,3.805c0.108,0.553,0.162,1.023,0.188,1.342
		c0.013,0.16,0.019,0.282,0.022,0.358l0.002,0.08v0.012l0.83-0.007h-0.83v0.007l0.83-0.007h-0.83v104.862
		c-0.006,2.479-0.601,4.151-1.421,5.391c-0.62,0.929-1.391,1.627-2.235,2.171c-1.262,0.814-2.696,1.256-3.805,1.47
		c-0.553,0.108-1.023,0.163-1.342,0.188c-0.16,0.014-0.282,0.02-0.358,0.022l-0.08,0.002h-0.012l0.007,0.832v-0.832h-0.007
		l0.007,0.832v-0.832H13.205c-2.48-0.005-4.152-0.601-5.391-1.421c-0.929-0.619-1.626-1.391-2.17-2.234
		c-0.815-1.263-1.256-2.696-1.471-3.805c-0.108-0.554-0.162-1.022-0.188-1.342c-0.013-0.16-0.019-0.282-0.022-0.358l-0.002-0.079
		v-0.013l-0.832,0.008H3.96v-0.008l-0.832,0.008H3.96V13.205c0.006-2.48,0.602-4.152,1.421-5.391c0.62-0.928,1.391-1.626,2.235-2.17
		c1.262-0.815,2.696-1.256,3.805-1.471c0.553-0.108,1.023-0.162,1.342-0.188c0.16-0.013,0.282-0.019,0.358-0.022l0.08-0.002h0.012
		l-0.007-0.831V3.96h0.007l-0.007-0.831V3.96V1.98z"/>
	<path fill="#FFFFFF" d="M215,1.98c0,0-11.225,0-11.225,11.225v104.862c0,0,0,11.225,11.225,11.225h204.198
		c0,0,11.225,0,11.225-11.225V13.205c0,0,0-11.225-11.225-11.225H215z"/>
	<path fill="#009EE0" d="M215,1.98V0c-0.165,0.011-3.214-0.013-6.498,1.612c-1.635,0.816-3.34,2.083-4.62,4.005
		c-1.285,1.918-2.092,4.456-2.086,7.588v104.862c0.011,0.165-0.013,3.214,1.612,6.498c0.816,1.635,2.083,3.34,4.005,4.62
		c1.917,1.284,4.455,2.092,7.587,2.087h204.198c0.165-0.011,3.214,0.012,6.498-1.612c1.635-0.816,3.34-2.083,4.62-4.005
		c1.284-1.918,2.092-4.455,2.086-7.588V13.205c-0.01-0.165,0.013-3.214-1.611-6.498c-0.816-1.635-2.083-3.34-4.005-4.621
		c-1.918-1.285-4.456-2.092-7.588-2.086H215V1.98v1.98h204.198c2.479,0.006,4.151,0.601,5.391,1.421
		c0.929,0.62,1.627,1.391,2.171,2.235c0.814,1.262,1.256,2.696,1.47,3.805c0.108,0.553,0.163,1.023,0.188,1.342
		c0.014,0.16,0.02,0.282,0.022,0.358l0.002,0.08v0.012l0.83-0.007h-0.83v0.007l0.83-0.007h-0.83v104.862
		c-0.005,2.48-0.601,4.151-1.421,5.391c-0.619,0.929-1.391,1.627-2.234,2.171c-1.263,0.814-2.696,1.256-3.805,1.47
		c-0.554,0.108-1.022,0.163-1.342,0.188c-0.16,0.014-0.282,0.02-0.358,0.022l-0.079,0.002h-0.013l0.008,0.835v-0.835h-0.008
		l0.008,0.835v-0.835H215c-2.48-0.005-4.151-0.601-5.391-1.421c-0.928-0.619-1.626-1.391-2.17-2.234
		c-0.814-1.263-1.255-2.696-1.47-3.805c-0.108-0.554-0.162-1.022-0.188-1.342c-0.013-0.16-0.019-0.282-0.022-0.358l-0.002-0.079
		v-0.013l-0.831,0.008h0.831v-0.008l-0.831,0.008h0.831V13.205c0.006-2.48,0.601-4.152,1.421-5.391
		c0.62-0.929,1.39-1.626,2.235-2.17c1.262-0.815,2.696-1.256,3.804-1.471c0.553-0.108,1.023-0.162,1.342-0.188
		c0.16-0.013,0.282-0.019,0.358-0.022l0.08-0.002h0.012L215,3.129V3.96h0.007L215,3.129V3.96V1.98z"/>
	<rect x="193.174" y="1.98" fill="#009EE0" width="20.982" height="127.312"/>
	<polygon fill="#009EE0" points="193.174,1.98 191.194,1.98 191.194,131.272 216.136,131.272 216.136,0 191.194,0 191.194,1.98 
		193.174,1.98 193.174,3.96 212.176,3.96 212.176,127.312 195.154,127.312 195.154,1.98 193.174,1.98 193.174,3.96 	"/>
	<path fill="#F077B8" d="M277.776,64.587c0.831-7.247,5.346-16.871,16.038-16.871c11.762,0,14.613,10.336,14.494,16.871H277.776z
		 M318.051,72.072c0.237-1.188,0.356-2.732,0.356-4.871c0-10.574-4.871-26.969-23.761-26.969c-16.752,0-26.969,13.543-26.969,30.889
		c0,17.346,10.573,29.107,28.275,29.107c9.148,0,15.563-2.02,19.246-3.683l-1.9-7.484c-3.802,1.663-8.436,2.97-15.92,2.97
		c-10.573,0-19.484-5.821-19.722-19.959H318.051z M235.603,30.728V41.42h-8.91v7.96h8.91v31.365c0,6.771,1.188,11.88,4.039,15.088
		c2.495,2.732,6.416,4.396,11.287,4.396c4.039,0,7.247-0.713,9.267-1.426l-0.476-7.96c-1.544,0.476-3.207,0.713-6.059,0.713
		c-5.821,0-7.842-4.039-7.842-11.167V49.38h14.97v-7.96h-14.97V27.639L235.603,30.728z"/>
	<path fill="#F077B8" d="M389.92,30.728V41.42h-8.91v7.96h8.91v31.365c0,6.771,1.188,11.88,4.039,15.088
		c2.495,2.732,6.416,4.396,11.287,4.396c4.039,0,7.247-0.713,9.267-1.426l-0.476-7.96c-1.544,0.476-3.207,0.713-6.059,0.713
		c-5.821,0-7.842-4.039-7.842-11.167V49.38h14.97v-7.96h-14.97V27.639L389.92,30.728z M324.223,41.42l19.484,28.157l-20.435,29.345
		h11.524l8.316-12.95c2.257-3.445,4.158-6.534,6.059-9.979h0.238c2.02,3.445,3.92,6.653,6.178,9.979l8.554,12.95h11.762
		l-20.078-29.701l19.603-27.8h-11.405l-7.96,12.237c-2.02,3.089-3.92,6.059-5.821,9.386h-0.237c-1.901-3.208-3.683-6.059-5.94-9.267
		l-8.197-12.355H324.223z"/>
	<path fill="#FFFFFF" d="M148.432,100.317h10.455V65.745c0-1.782,0.238-3.564,0.713-4.871c1.901-5.821,7.247-10.692,14.019-10.692
		c9.861,0,13.306,7.722,13.306,16.989v33.146h10.455V66.102c0-19.722-12.356-24.474-20.316-24.474
		c-9.504,0-16.157,5.346-19.009,10.692h-0.238l-0.594-9.504h-9.267c0.356,4.752,0.475,9.504,0.475,15.563V100.317z M107.329,49.469
		c12.356,0,17.227,12.237,17.227,21.979c0,12.949-7.485,22.335-17.464,22.335c-10.217,0-17.346-9.505-17.346-22.098
		C89.746,60.874,95.092,49.469,107.329,49.469z M107.566,41.628c-15.801,0-28.513,11.286-28.513,30.414
		c0,18.177,12.118,29.582,27.563,29.582c13.782,0,28.632-9.267,28.632-30.532C135.248,53.627,124.08,41.628,107.566,41.628z
		 M37.831,15.966H27.495v84.352h10.336V78.695l5.346-5.94l19.722,27.563H75.73L50.424,66.458l22.098-23.642H60.047l-16.989,19.84
		c-1.664,2.02-3.564,4.515-4.99,6.534h-0.238V15.966z"/>
</g>
</svg>
