<?xml version="1.0" encoding="utf-8"?>
<!-- Generator: Adobe Illustrator 14.0.0, SVG Export Plug-In . SVG Version: 6.00 Build 43363)  -->
<!DOCTYPE svg PUBLIC "-//W3C//DTD SVG 1.1//EN" "http://www.w3.org/Graphics/SVG/1.1/DTD/svg11.dtd">
<svg version="1.1" id="Vrstva_1" xmlns="http://www.w3.org/2000/svg" xmlns:xlink="http://www.w3.org/1999/xlink" x="0px" y="0px"
	 width="37.833px" height="27.833px" viewBox="-1.646 -2.328 37.833 27.833" enable-background="new -1.646 -2.328 37.833 27.833"
	 xml:space="preserve">
<path fill="#009EE0" d="M12.867-0.603L4.112,5.623C4.09,5.638,4.071,5.664,4.05,5.682H0.147c-0.825,0-1.5,0.675-1.5,1.5v9.071
	c0,0.825,0.675,1.5,1.5,1.5h3.904c0.021,0.018,0.039,0.043,0.06,0.058l8.755,6.227c0.297,0.21,0.539,0.085,0.539-0.278V-0.324
	C13.406-0.688,13.164-0.813,12.867-0.603z"/>
<g>
	<path fill="#009EE0" d="M31.334,24.992c2.799-3.267,4.516-8.117,4.521-13.523c-0.004-5.119-1.542-9.734-4.079-12.986
		c-0.392-0.5-1.114-0.589-1.615-0.197c-0.5,0.391-0.588,1.114-0.197,1.614c2.168,2.763,3.595,6.915,3.591,11.569
		c0.005,4.914-1.594,9.276-3.964,12.023c-0.414,0.481-0.359,1.208,0.122,1.622S30.92,25.473,31.334,24.992z"/>
	<path fill="#009EE0" d="M25.759,21.109c1.76-2.346,2.809-5.75,2.814-9.562c-0.005-3.602-0.938-6.853-2.527-9.181
		c-0.358-0.524-1.074-0.658-1.599-0.299c-0.523,0.359-0.657,1.075-0.298,1.599c1.263,1.834,2.128,4.686,2.123,7.881
		c0.006,3.38-0.969,6.358-2.35,8.177c-0.383,0.507-0.281,1.229,0.226,1.61C24.656,21.718,25.377,21.616,25.759,21.109z"/>
	<path fill="#009EE0" d="M20.621,17.669c0.8-1.538,1.232-3.67,1.239-6.065c-0.005-2.266-0.402-4.289-1.116-5.798
		c-0.273-0.574-0.96-0.817-1.533-0.543s-0.816,0.959-0.543,1.533c0.515,1.067,0.896,2.831,0.892,4.809
		c0.007,2.094-0.422,3.96-0.974,4.995c-0.296,0.563-0.079,1.258,0.482,1.553C19.63,18.447,20.326,18.23,20.621,17.669z"/>
</g>
</svg>
