<?xml version="1.0" encoding="utf-8"?>
<!-- Generator: Adobe Illustrator 14.0.0, SVG Export Plug-In . SVG Version: 6.00 Build 43363)  -->
<!DOCTYPE svg PUBLIC "-//W3C//DTD SVG 1.1//EN" "http://www.w3.org/Graphics/SVG/1.1/DTD/svg11.dtd">
<svg version="1.1" id="Vrstva_1" xmlns="http://www.w3.org/2000/svg" xmlns:xlink="http://www.w3.org/1999/xlink" x="0px" y="0px"
	 width="26.314px" height="20.432px" viewBox="0 0 26.314 20.432" enable-background="new 0 0 26.314 20.432" xml:space="preserve">
<path fill="#7C7C7C" d="M25.545,1.637l-0.166,0.336L25.545,1.637C25.386,1.564,22.197,0.006,19.081,0h-0.158h-0.004h-0.002
	c-2.441,0.048-4.768,0.964-5.767,1.404C12.112,0.959,9.647,0.004,7.198,0H7.041H7.038H7.035C3.889,0.063,0.904,1.572,0.753,1.645
	C0.276,1.889,0.001,2.398,0,2.941v16.061c0,0.381,0.135,0.729,0.364,0.992c0.228,0.262,0.562,0.438,0.935,0.438h0.106
	c0.178,0,0.355-0.041,0.518-0.119l0,0c0,0,0.001-0.002,0.002-0.002s0.002,0,0.003,0l0,0c0.451-0.217,2.864-1.304,5.151-1.34
	L7.2,18.969c2.249-0.007,4.844,1.127,5.32,1.352c0.156,0.07,0.327,0.111,0.504,0.111h0.111h0.014h0.018h0.121
	c0.178,0,0.354-0.041,0.516-0.119l0,0c0.001-0.002,0.004-0.002,0.005-0.002c0.001-0.002,0.001-0.002,0.002-0.002l0,0
	c0.456-0.218,2.865-1.302,5.15-1.338l0.121-0.002c2.25-0.007,4.846,1.127,5.318,1.352c0.155,0.072,0.328,0.111,0.505,0.111h0.109
	c0.373,0,0.708-0.177,0.937-0.438c0.229-0.263,0.362-0.611,0.362-0.992V2.941C26.313,2.392,26.031,1.878,25.545,1.637z
	 M18.918,16.113h-0.002c-1.654,0.031-3.256,0.464-4.438,0.88V3.905c0.978-0.401,2.759-1.019,4.479-1.048l0,0h0.121
	c1.701-0.003,3.607,0.645,4.637,1.059v13.09c-1.246-0.435-2.944-0.894-4.637-0.896h-0.006L18.918,16.113z M7.037,16.113H7.035
	c-1.656,0.031-3.255,0.464-4.438,0.88V3.905c0.975-0.401,2.76-1.019,4.481-1.048l0,0H7.2c1.702-0.003,3.606,0.645,4.636,1.059v13.09
	c-1.247-0.435-2.946-0.894-4.638-0.896H7.193L7.037,16.113z"/>
</svg>
