<?xml version="1.0" encoding="utf-8"?>
<!-- Generator: Adobe Illustrator 14.0.0, SVG Export Plug-In . SVG Version: 6.00 Build 43363)  -->
<!DOCTYPE svg PUBLIC "-//W3C//DTD SVG 1.1//EN" "http://www.w3.org/Graphics/SVG/1.1/DTD/svg11.dtd">
<svg version="1.1" id="Vrstva_1" xmlns="http://www.w3.org/2000/svg" xmlns:xlink="http://www.w3.org/1999/xlink" x="0px" y="0px"
	 width="25.564px" height="19.682px" viewBox="0 0 25.564 19.682" enable-background="new 0 0 25.564 19.682" xml:space="preserve">
<path fill="#009EE0" d="M179.983,6.825l-0.165,0.336L179.983,6.825c-0.159-0.072-3.348-1.631-6.465-1.637h-0.157h-0.004h-0.002
	c-2.443,0.048-4.768,0.964-5.767,1.405c-1.038-0.446-3.503-1.401-5.952-1.405h-0.157h-0.003h-0.003
	c-3.146,0.063-6.131,1.572-6.282,1.645c-0.478,0.244-0.752,0.754-0.753,1.297v16.06c0,0.381,0.135,0.73,0.364,0.992
	c0.228,0.262,0.562,0.438,0.935,0.438h0.106c0.178,0,0.355-0.041,0.518-0.119l0,0l0.002-0.002c0.001,0,0.002,0,0.003,0l0,0
	c0.451-0.217,2.864-1.303,5.151-1.34l0.121-0.002c2.249-0.006,4.844,1.127,5.32,1.352c0.156,0.07,0.327,0.111,0.504,0.111h0.111
	h0.014h0.018h0.121c0.178,0,0.354-0.041,0.516-0.119l0,0c0.001-0.002,0.004-0.002,0.005-0.002c0.001-0.002,0.001-0.002,0.002-0.002
	l0,0c0.456-0.217,2.866-1.301,5.15-1.338l0.121-0.002c2.25-0.006,4.846,1.127,5.32,1.352c0.155,0.072,0.328,0.111,0.505,0.111h0.109
	c0.373,0,0.708-0.176,0.936-0.438c0.229-0.262,0.363-0.611,0.363-0.992V8.13C180.751,7.58,180.469,7.066,179.983,6.825z
	 M173.357,21.301h-0.002c-1.655,0.031-3.256,0.463-4.438,0.879V9.094c0.976-0.402,2.759-1.019,4.481-1.048l0,0h0.121
	c1.701-0.003,3.607,0.644,4.636,1.058v13.09c-1.247-0.434-2.945-0.893-4.637-0.895h-0.005L173.357,21.301z M161.475,21.301h-0.002
	c-1.656,0.031-3.255,0.463-4.438,0.879V9.094c0.975-0.402,2.76-1.019,4.481-1.048l0,0h0.121c1.702-0.003,3.606,0.644,4.636,1.058
	v13.09c-1.247-0.434-2.946-0.893-4.638-0.895h-0.005L161.475,21.301z"/>
<path fill="#009EE0" d="M261.861,32.558V18.684c0.385-0.165,0.955-0.388,1.622-0.595v-2.175c-1.15,0.32-2.093,0.71-2.573,0.929
	c-0.916-0.405-3.492-1.439-5.954-1.439l-0.156,0c-3.032,0.056-5.995,1.541-6.118,1.604c-0.334,0.168-0.549,0.547-0.549,0.963v7.274
	h1.848v-6.562c0.929-0.398,2.902-1.137,4.85-1.172h0.126c1.929,0,4.032,0.771,5.013,1.18v13.879
	c-1.242-0.471-3.155-1.055-5.013-1.055l-0.156,0.002c-1.304,0.023-2.585,0.31-3.645,0.636v2.195c1.013-0.347,2.345-0.7,3.675-0.724
	l0.126-0.002c2.365,0,4.979,1.154,5.479,1.385c0.11,0.051,0.228,0.078,0.347,0.078h0.111c0.008,0,0.015-0.003,0.022-0.004
	c0.008,0.001,0.015,0.004,0.022,0.004h0.107c0.121,0,0.244-0.028,0.355-0.084c0.245-0.115,1.041-0.476,2.083-0.8v-2.181
	C262.873,32.192,262.32,32.382,261.861,32.558z"/>
<path fill="#009EE0" d="M273.138,17.002c-0.082-0.04-1.314-0.634-2.946-1.087v2.179c0.678,0.209,1.263,0.433,1.658,0.598v13.879
	c-0.47-0.178-1.036-0.372-1.658-0.545v2.179c1.052,0.324,1.869,0.686,2.125,0.804c0.109,0.051,0.228,0.078,0.348,0.078h0.109
	c0.51,0,0.924-0.473,0.924-1.055V17.971C273.697,17.55,273.477,17.168,273.138,17.002z"/>
<path fill="#009EE0" d="M173.652,11.938h0.127c1.148,0,2.354,0.274,3.354,0.582v-2.179c-1.022-0.283-2.2-0.511-3.354-0.511l-0.156,0
	c-1.126,0.021-2.234,0.241-3.198,0.51v2.175C171.368,12.221,172.512,11.958,173.652,11.938z"/>
<path fill="#009EE0" d="M173.652,15.823h0.127c1.148,0,2.354,0.275,3.354,0.582v-2.178c-1.022-0.283-2.2-0.511-3.354-0.511l-0.156,0
	c-1.126,0.021-2.234,0.241-3.198,0.51v2.175C171.368,16.106,172.512,15.844,173.652,15.823z"/>
<path fill="#009EE0" d="M173.652,19.688h0.127c1.148,0,2.354,0.274,3.354,0.582v-2.179c-1.022-0.283-2.2-0.511-3.354-0.511h-0.156
	c-1.126,0.021-2.234,0.241-3.198,0.51v2.175C171.368,19.971,172.512,19.708,173.652,19.688z"/>
<path fill="#009EE0" d="M161.486,11.948h0.127c1.148,0,2.354,0.274,3.354,0.582v-2.179c-1.022-0.283-2.2-0.511-3.354-0.511l-0.156,0
	c-1.126,0.021-2.234,0.241-3.198,0.51v2.175C159.202,12.231,160.345,11.969,161.486,11.948z"/>
<path fill="#009EE0" d="M161.486,15.833h0.127c1.148,0,2.354,0.275,3.354,0.581v-2.178c-1.022-0.283-2.2-0.511-3.354-0.511l-0.156,0
	c-1.126,0.021-2.234,0.241-3.198,0.51v2.175C159.202,16.116,160.345,15.854,161.486,15.833z"/>
<path fill="#009EE0" d="M161.486,19.698h0.127c1.148,0,2.354,0.275,3.354,0.582v-2.178c-1.022-0.283-2.2-0.512-3.354-0.512h-0.156
	c-1.126,0.021-2.234,0.242-3.198,0.51v2.176C159.202,19.981,160.345,19.719,161.486,19.698z"/>
<path fill="#009EE0" d="M-99.933,11.701l-0.165,0.336L-99.933,11.701c-0.159-0.072-3.348-1.631-6.465-1.637h-0.157h-0.004h-0.002
	c-2.443,0.048-4.768,0.964-5.767,1.405c-1.038-0.446-3.503-1.401-5.952-1.405h-0.157h-0.003h-0.003
	c-3.146,0.063-6.131,1.572-6.282,1.645c-0.478,0.244-0.752,0.754-0.753,1.297v16.06c0,0.381,0.135,0.73,0.364,0.992
	c0.228,0.262,0.562,0.438,0.935,0.438h0.106c0.178,0,0.355-0.041,0.518-0.119l0,0c0,0,0.001-0.002,0.002-0.002
	c0.001,0,0.002,0,0.003,0l0,0c0.451-0.217,2.864-1.303,5.151-1.34l0.121-0.002c2.249-0.006,4.844,1.127,5.32,1.352
	c0.156,0.07,0.327,0.111,0.504,0.111h0.111h0.014h0.018h0.121c0.178,0,0.354-0.041,0.516-0.119l0,0
	c0.001-0.002,0.004-0.002,0.005-0.002c0.001-0.002,0.001-0.002,0.002-0.002l0,0c0.456-0.217,2.866-1.301,5.15-1.338l0.121-0.002
	c2.25-0.006,4.846,1.127,5.32,1.352c0.155,0.072,0.328,0.111,0.505,0.111h0.109c0.373,0,0.708-0.176,0.936-0.438
	c0.229-0.262,0.363-0.611,0.363-0.992v-16.06C-99.164,12.456-99.446,11.942-99.933,11.701z M-106.559,26.176h-0.002
	c-1.655,0.031-3.256,0.463-4.438,0.879V13.969c0.976-0.402,2.759-1.019,4.481-1.048l0,0h0.121c1.701-0.003,3.607,0.644,4.636,1.058
	v13.09c-1.247-0.434-2.945-0.893-4.637-0.895h-0.005L-106.559,26.176z M-118.44,26.176h-0.002c-1.656,0.031-3.255,0.463-4.438,0.879
	V13.969c0.975-0.402,2.76-1.019,4.481-1.048l0,0h0.121c1.702-0.003,3.606,0.644,4.636,1.058v13.09
	c-1.247-0.434-2.946-0.893-4.638-0.895h-0.005L-118.44,26.176z"/>
<path fill="#009EE0" d="M-118.373,17.453h0.102c0.917,0,1.879,0.22,2.676,0.464v-1.738c-0.816-0.226-1.756-0.408-2.676-0.408
	l-0.125,0c-0.898,0.016-1.783,0.192-2.552,0.407v1.735C-120.196,17.678-119.283,17.469-118.373,17.453z"/>
<path fill="#009EE0" d="M-118.373,20.553h0.102c0.917,0,1.879,0.219,2.676,0.464V19.28c-0.816-0.227-1.756-0.408-2.676-0.408h-0.125
	c-0.898,0.016-1.783,0.192-2.552,0.406v1.736C-120.196,20.779-119.283,20.57-118.373,20.553z"/>
<path fill="#009EE0" d="M-118.373,23.637h0.102c0.917,0,1.879,0.22,2.676,0.465v-1.738c-0.816-0.227-1.756-0.408-2.676-0.408h-0.125
	c-0.898,0.018-1.783,0.193-2.552,0.406v1.736C-120.196,23.864-119.283,23.655-118.373,23.637z"/>
<path fill="#009EE0" d="M-106.498,17.46h0.102c0.917,0,1.879,0.22,2.676,0.464v-1.738c-0.816-0.226-1.756-0.408-2.676-0.408
	l-0.125,0c-0.898,0.016-1.783,0.192-2.552,0.407v1.735C-108.321,17.686-107.408,17.477-106.498,17.46z"/>
<path fill="#009EE0" d="M-106.498,20.561h0.102c0.917,0,1.879,0.219,2.676,0.464v-1.737c-0.816-0.227-1.756-0.408-2.676-0.408
	h-0.125c-0.898,0.016-1.783,0.192-2.552,0.406v1.736C-108.321,20.787-107.408,20.578-106.498,20.561z"/>
<path fill="#009EE0" d="M-106.498,23.645h0.102c0.917,0,1.879,0.22,2.676,0.465v-1.738c-0.816-0.227-1.756-0.408-2.676-0.408h-0.125
	c-0.898,0.018-1.783,0.193-2.552,0.406v1.736C-108.321,23.872-107.408,23.663-106.498,23.645z"/>
<path fill="#009EE0" d="M-55.887-92.54l-0.165,0.336L-55.887-92.54c-0.159-0.072-3.348-1.631-6.465-1.637h-0.157h-0.004h-0.002
	c-2.443,0.048-4.768,0.964-5.767,1.405c-1.038-0.446-3.503-1.401-5.952-1.405h-0.157h-0.003h-0.003
	c-3.146,0.063-6.131,1.572-6.282,1.645c-0.478,0.244-0.752,0.754-0.753,1.297v16.06c0,0.381,0.135,0.73,0.364,0.992
	c0.228,0.262,0.562,0.438,0.935,0.438h0.106c0.178,0,0.355-0.041,0.518-0.119l0,0c0,0,0.001-0.002,0.002-0.002
	c0.001,0,0.002,0,0.003,0l0,0c0.451-0.217,2.864-1.303,5.151-1.34l0.121-0.002c2.249-0.006,4.844,1.127,5.32,1.352
	c0.156,0.07,0.327,0.111,0.504,0.111h0.111h0.014h0.018h0.121c0.178,0,0.354-0.041,0.516-0.119l0,0
	c0.001-0.002,0.004-0.002,0.005-0.002c0.001-0.002,0.001-0.002,0.002-0.002l0,0c0.456-0.217,2.866-1.301,5.15-1.338l0.121-0.002
	c2.25-0.006,4.846,1.127,5.32,1.352c0.155,0.072,0.328,0.111,0.505,0.111h0.109c0.373,0,0.708-0.176,0.936-0.438
	c0.229-0.262,0.363-0.611,0.363-0.992v-16.06C-55.118-91.785-55.4-92.299-55.887-92.54z M-62.513-78.064h-0.002
	c-1.655,0.031-3.256,0.463-4.438,0.879v-13.086c0.976-0.402,2.759-1.019,4.481-1.048l0,0h0.121c1.701-0.003,3.607,0.644,4.636,1.058
	v13.09c-1.247-0.434-2.945-0.893-4.637-0.895h-0.005L-62.513-78.064z M-74.395-78.064h-0.002c-1.656,0.031-3.255,0.463-4.438,0.879
	v-13.086c0.975-0.402,2.76-1.019,4.481-1.048l0,0h0.121c1.702-0.003,3.606,0.644,4.636,1.058v13.09
	c-1.247-0.434-2.946-0.893-4.638-0.895h-0.005L-74.395-78.064z"/>
<path fill="#009EE0" d="M266.838,31.516l-0.156,0.002c-1.124,0.021-2.234,0.236-3.198,0.504v2.181
	c0.943-0.293,2.088-0.557,3.228-0.577l0.127-0.002c1.151,0,2.357,0.274,3.354,0.581v-2.179
	C269.168,31.742,267.993,31.516,266.838,31.516z"/>
<path fill="#009EE0" d="M249.98,32.558v-7.313h-1.848v8.786c0,0.582,0.414,1.055,0.924,1.055h0.106c0.122,0,0.243-0.028,0.357-0.084
	c0.208-0.098,0.82-0.374,1.635-0.653v-2.195C250.723,32.288,250.323,32.426,249.98,32.558z"/>
<path fill="#009EE0" d="M-17.539-92.205c-0.134-0.064-3.304-1.598-6.3-1.598h-0.156c-2.469,0.045-4.889,1.037-5.771,1.438
	c-0.916-0.405-3.492-1.438-5.954-1.438h-0.156c-3.032,0.056-5.995,1.541-6.118,1.604c-0.334,0.168-0.549,0.547-0.549,0.963v16.061
	c0,0.582,0.414,1.055,0.924,1.055h0.106c0.122,0,0.243-0.028,0.357-0.084c0.466-0.22,2.91-1.334,5.31-1.377l0.126-0.002
	c2.365,0,4.979,1.154,5.479,1.385c0.11,0.051,0.228,0.078,0.347,0.078h0.111c0.008,0,0.015-0.003,0.022-0.004
	c0.008,0.001,0.015,0.004,0.022,0.004h0.107c0.121,0,0.244-0.028,0.355-0.084c0.467-0.22,2.912-1.334,5.311-1.377l0.127-0.002
	c2.366,0,4.979,1.154,5.479,1.385c0.109,0.051,0.228,0.078,0.348,0.078h0.109c0.51,0,0.924-0.473,0.924-1.055v-16.061
	C-16.979-91.657-17.2-92.039-17.539-92.205z M-30.708-76.636c-1.242-0.471-3.155-1.055-5.013-1.055l-0.156,0.002
	c-1.837,0.033-3.638,0.586-4.819,1.04v-13.874c0.929-0.398,2.902-1.137,4.85-1.172h0.126c1.929,0,4.032,0.771,5.013,1.18V-76.636z
	 M-18.827-76.636c-1.242-0.471-3.154-1.055-5.012-1.055l-0.156,0.002c-1.836,0.033-3.638,0.586-4.82,1.04v-13.874
	c0.93-0.398,2.902-1.137,4.85-1.172h0.127c1.928,0,4.033,0.771,5.012,1.18V-76.636z"/>
<g>
	<path fill="#009EE0" d="M6.626,7.021h0.102c0.917,0,1.879,0.219,2.676,0.464V5.748C8.588,5.521,7.648,5.339,6.728,5.339l-0.125,0
		C5.705,5.356,4.82,5.532,4.051,5.747v1.735C4.804,7.248,5.716,7.038,6.626,7.021z"/>
	<path fill="#009EE0" d="M6.626,10.122h0.102c0.917,0,1.879,0.219,2.676,0.464V8.848C8.588,8.622,7.648,8.44,6.728,8.44l-0.125,0
		C5.705,8.457,4.82,8.633,4.051,8.847v1.735C4.804,10.348,5.716,10.139,6.626,10.122z"/>
	<path fill="#009EE0" d="M6.626,13.206h0.102c0.917,0,1.879,0.22,2.676,0.464v-1.738c-0.816-0.226-1.756-0.409-2.676-0.409H6.603
		c-0.898,0.018-1.783,0.193-2.552,0.407v1.736C4.804,13.432,5.716,13.223,6.626,13.206z"/>
	<path fill="#009EE0" d="M18.564,7.029h0.102c0.917,0,1.879,0.219,2.676,0.464V5.755c-0.816-0.226-1.756-0.408-2.676-0.408l-0.125,0
		c-0.898,0.016-1.783,0.192-2.552,0.407V7.49C16.741,7.255,17.654,7.046,18.564,7.029z"/>
	<path fill="#009EE0" d="M18.564,10.13h0.102c0.917,0,1.879,0.219,2.676,0.464V8.856c-0.816-0.226-1.756-0.408-2.676-0.408l-0.125,0
		c-0.898,0.016-1.783,0.192-2.552,0.407v1.735C16.741,10.355,17.654,10.146,18.564,10.13z"/>
	<path fill="#009EE0" d="M18.564,13.214h0.102c0.917,0,1.879,0.22,2.676,0.464V11.94c-0.816-0.226-1.756-0.409-2.676-0.409h-0.125
		c-0.898,0.018-1.783,0.193-2.552,0.407v1.736C16.741,13.44,17.654,13.231,18.564,13.214z"/>
	<path fill="#009EE0" d="M25.005,1.598C24.871,1.533,21.701,0,18.705,0h-0.156c-2.469,0.045-4.889,1.037-5.771,1.438
		C11.861,1.033,9.285,0,6.823,0H6.667C3.635,0.056,0.672,1.541,0.549,1.604C0.215,1.771,0,2.15,0,2.566v16.06
		c0,0.582,0.414,1.055,0.924,1.055H1.03c0.122,0,0.243-0.027,0.357-0.084c0.466-0.219,2.91-1.334,5.31-1.377l0.126-0.002
		c2.365,0,4.979,1.154,5.479,1.385c0.11,0.051,0.228,0.078,0.347,0.078h0.111c0.008,0,0.015-0.002,0.022-0.004
		c0.008,0.002,0.015,0.004,0.022,0.004h0.107c0.121,0,0.244-0.027,0.355-0.084c0.467-0.219,2.912-1.334,5.311-1.377l0.127-0.002
		c2.366,0,4.979,1.154,5.479,1.385c0.109,0.051,0.228,0.078,0.348,0.078h0.109c0.51,0,0.924-0.473,0.924-1.055V2.566
		C25.564,2.146,25.344,1.764,25.005,1.598z M11.836,17.166c-1.242-0.471-3.155-1.055-5.013-1.055l-0.156,0.002
		c-1.837,0.033-3.638,0.586-4.819,1.041V3.279c0.929-0.398,2.902-1.137,4.85-1.172h0.126c1.929,0,4.032,0.771,5.013,1.18V17.166z
		 M23.717,17.166c-1.242-0.471-3.154-1.055-5.012-1.055l-0.156,0.002c-1.836,0.033-3.638,0.586-4.82,1.041V3.279
		c0.93-0.398,2.902-1.137,4.85-1.172h0.127c1.928,0,4.033,0.771,5.012,1.18V17.166z"/>
</g>
</svg>
