<?xml version="1.0" encoding="utf-8"?>
<!-- Generator: Adobe Illustrator 14.0.0, SVG Export Plug-In . SVG Version: 6.00 Build 43363)  -->
<!DOCTYPE svg PUBLIC "-//W3C//DTD SVG 1.1//EN" "http://www.w3.org/Graphics/SVG/1.1/DTD/svg11.dtd">
<svg version="1.1" id="Vrstva_1" xmlns="http://www.w3.org/2000/svg" xmlns:xlink="http://www.w3.org/1999/xlink" x="0px" y="0px"
	 width="26.314px" height="20.431px" viewBox="0 0 26.314 20.431" enable-background="new 0 0 26.314 20.431" xml:space="preserve">
<path fill="#009EE0" d="M261.415,101.002l-0.165,0.336L261.415,101.002c-0.159-0.072-3.348-1.631-6.465-1.637h-0.157h-0.004h-0.002
	c-2.443,0.048-4.768,0.964-5.767,1.405c-1.038-0.446-3.503-1.401-5.952-1.405h-0.157h-0.003h-0.003
	c-3.146,0.063-6.131,1.572-6.282,1.645c-0.478,0.244-0.752,0.754-0.753,1.297v16.06c0,0.381,0.135,0.73,0.364,0.992
	c0.228,0.262,0.562,0.438,0.935,0.438h0.106c0.178,0,0.355-0.041,0.518-0.119l0,0l0.002-0.002c0.001,0,0.002,0,0.003,0l0,0
	c0.451-0.217,2.864-1.303,5.151-1.34l0.121-0.002c2.249-0.006,4.844,1.127,5.32,1.352c0.156,0.07,0.327,0.111,0.504,0.111h0.111
	h0.014h0.018h0.121c0.178,0,0.354-0.041,0.516-0.119l0,0c0.001-0.002,0.004-0.002,0.005-0.002c0.001-0.002,0.001-0.002,0.002-0.002
	l0,0c0.456-0.217,2.866-1.301,5.15-1.338l0.121-0.002c2.25-0.006,4.846,1.127,5.32,1.352c0.155,0.072,0.328,0.111,0.505,0.111h0.109
	c0.373,0,0.708-0.176,0.936-0.438c0.229-0.262,0.363-0.611,0.363-0.992v-16.06C262.183,101.757,261.901,101.243,261.415,101.002z
	 M254.789,115.478h-0.002c-1.655,0.031-3.256,0.463-4.438,0.879v-13.086c0.976-0.402,2.759-1.019,4.481-1.048l0,0h0.121
	c1.701-0.003,3.607,0.644,4.636,1.058v13.09c-1.247-0.434-2.945-0.893-4.637-0.895h-0.005L254.789,115.478z M242.907,115.478h-0.002
	c-1.656,0.031-3.255,0.463-4.438,0.879v-13.086c0.975-0.402,2.76-1.019,4.481-1.048l0,0h0.121c1.702-0.003,3.606,0.644,4.636,1.058
	v13.09c-1.247-0.434-2.946-0.893-4.638-0.895h-0.005L242.907,115.478z"/>
<path fill="#009EE0" d="M343.293,126.735v-13.874c0.385-0.165,0.955-0.388,1.622-0.595v-2.175c-1.15,0.32-2.093,0.71-2.573,0.929
	c-0.916-0.405-3.492-1.439-5.954-1.439l-0.156,0c-3.032,0.056-5.995,1.541-6.118,1.604c-0.334,0.168-0.549,0.547-0.549,0.963v7.274
	h1.848v-6.562c0.929-0.398,2.902-1.137,4.85-1.172h0.126c1.929,0,4.032,0.771,5.013,1.18v13.879
	c-1.242-0.471-3.155-1.055-5.013-1.055l-0.156,0.002c-1.304,0.023-2.585,0.31-3.645,0.636v2.195c1.013-0.347,2.345-0.7,3.675-0.724
	l0.126-0.002c2.365,0,4.979,1.154,5.479,1.385c0.11,0.051,0.228,0.078,0.347,0.078h0.111c0.008,0,0.015-0.003,0.022-0.004
	c0.008,0.001,0.015,0.004,0.022,0.004h0.107c0.121,0,0.244-0.028,0.355-0.084c0.245-0.115,1.041-0.476,2.083-0.8v-2.181
	C344.305,126.369,343.752,126.559,343.293,126.735z"/>
<path fill="#009EE0" d="M354.569,111.179c-0.082-0.04-1.314-0.634-2.946-1.087v2.179c0.678,0.209,1.263,0.433,1.658,0.598v13.879
	c-0.47-0.178-1.036-0.372-1.658-0.545v2.179c1.052,0.324,1.869,0.686,2.125,0.804c0.109,0.051,0.228,0.078,0.348,0.078h0.109
	c0.51,0,0.924-0.473,0.924-1.055v-16.061C355.129,111.727,354.908,111.345,354.569,111.179z"/>
<path fill="#009EE0" d="M255.084,106.115h0.127c1.148,0,2.354,0.274,3.354,0.582v-2.179c-1.022-0.283-2.2-0.511-3.354-0.511
	l-0.156,0c-1.126,0.021-2.234,0.241-3.198,0.51v2.175C252.8,106.398,253.943,106.135,255.084,106.115z"/>
<path fill="#009EE0" d="M255.084,110h0.127c1.148,0,2.354,0.275,3.354,0.582v-2.178c-1.022-0.283-2.2-0.511-3.354-0.511l-0.156,0
	c-1.126,0.021-2.234,0.241-3.198,0.51v2.175C252.8,110.283,253.943,110.021,255.084,110z"/>
<path fill="#009EE0" d="M255.084,113.865h0.127c1.148,0,2.354,0.274,3.354,0.582v-2.179c-1.022-0.283-2.2-0.511-3.354-0.511h-0.156
	c-1.126,0.021-2.234,0.241-3.198,0.51v2.175C252.8,114.148,253.943,113.885,255.084,113.865z"/>
<path fill="#009EE0" d="M242.917,106.125h0.127c1.148,0,2.354,0.274,3.354,0.582v-2.179c-1.022-0.283-2.2-0.511-3.354-0.511
	l-0.156,0c-1.126,0.021-2.234,0.241-3.198,0.51v2.175C240.633,106.408,241.777,106.146,242.917,106.125z"/>
<path fill="#009EE0" d="M242.917,110.01h0.127c1.148,0,2.354,0.275,3.354,0.581v-2.178c-1.022-0.283-2.2-0.511-3.354-0.511l-0.156,0
	c-1.126,0.021-2.234,0.241-3.198,0.51v2.175C240.633,110.293,241.777,110.031,242.917,110.01z"/>
<path fill="#009EE0" d="M242.917,113.875h0.127c1.148,0,2.354,0.275,3.354,0.582v-2.178c-1.022-0.283-2.2-0.512-3.354-0.512h-0.156
	c-1.126,0.021-2.234,0.242-3.198,0.51v2.176C240.633,114.158,241.777,113.896,242.917,113.875z"/>
<path fill="#009EE0" d="M-18.501,105.877l-0.165,0.336L-18.501,105.877c-0.159-0.072-3.348-1.631-6.465-1.637h-0.157h-0.004h-0.002
	c-2.443,0.048-4.768,0.964-5.767,1.405c-1.038-0.446-3.503-1.401-5.952-1.405h-0.157h-0.003h-0.003
	c-3.146,0.063-6.131,1.572-6.282,1.645c-0.478,0.244-0.752,0.754-0.753,1.297v16.06c0,0.381,0.135,0.73,0.364,0.992
	c0.228,0.262,0.562,0.438,0.935,0.438h0.106c0.178,0,0.355-0.041,0.518-0.119l0,0c0,0,0.001-0.002,0.002-0.002
	c0.001,0,0.002,0,0.003,0l0,0c0.451-0.217,2.864-1.303,5.151-1.34l0.121-0.002c2.249-0.006,4.844,1.127,5.32,1.352
	c0.156,0.07,0.327,0.111,0.504,0.111h0.111h0.014h0.018h0.121c0.178,0,0.354-0.041,0.516-0.119l0,0
	c0.001-0.002,0.004-0.002,0.005-0.002c0.001-0.002,0.001-0.002,0.002-0.002l0,0c0.456-0.217,2.866-1.301,5.15-1.338l0.121-0.002
	c2.25-0.006,4.846,1.127,5.32,1.352c0.155,0.072,0.328,0.111,0.505,0.111h0.109c0.373,0,0.708-0.176,0.936-0.438
	c0.229-0.262,0.363-0.611,0.363-0.992v-16.06C-17.732,106.632-18.015,106.119-18.501,105.877z M-25.127,120.353h-0.002
	c-1.655,0.031-3.256,0.463-4.438,0.879v-13.086c0.976-0.402,2.759-1.019,4.481-1.048l0,0h0.121c1.701-0.003,3.607,0.644,4.636,1.058
	v13.09c-1.247-0.434-2.945-0.893-4.637-0.895h-0.005L-25.127,120.353z M-37.009,120.353h-0.002
	c-1.656,0.031-3.255,0.463-4.438,0.879v-13.086c0.975-0.402,2.76-1.019,4.481-1.048l0,0h0.121c1.702-0.003,3.606,0.644,4.636,1.058
	v13.09c-1.247-0.434-2.946-0.893-4.638-0.895h-0.005L-37.009,120.353z"/>
<path fill="#009EE0" d="M-36.941,111.629h0.102c0.917,0,1.879,0.22,2.676,0.464v-1.738c-0.816-0.226-1.756-0.408-2.676-0.408
	l-0.125,0c-0.898,0.016-1.783,0.192-2.552,0.407v1.735C-38.764,111.855-37.852,111.646-36.941,111.629z"/>
<path fill="#009EE0" d="M-36.941,114.73h0.102c0.917,0,1.879,0.219,2.676,0.464v-1.737c-0.816-0.227-1.756-0.408-2.676-0.408h-0.125
	c-0.898,0.016-1.783,0.192-2.552,0.406v1.736C-38.764,114.956-37.852,114.747-36.941,114.73z"/>
<path fill="#009EE0" d="M-36.941,117.814h0.102c0.917,0,1.879,0.22,2.676,0.465v-1.738c-0.816-0.227-1.756-0.408-2.676-0.408h-0.125
	c-0.898,0.018-1.783,0.193-2.552,0.406v1.736C-38.764,118.041-37.852,117.832-36.941,117.814z"/>
<path fill="#009EE0" d="M-25.066,111.637h0.102c0.917,0,1.879,0.22,2.676,0.464v-1.738c-0.816-0.226-1.756-0.408-2.676-0.408
	l-0.125,0c-0.898,0.016-1.783,0.192-2.552,0.407v1.735C-26.889,111.863-25.977,111.654-25.066,111.637z"/>
<path fill="#009EE0" d="M-25.066,114.738h0.102c0.917,0,1.879,0.219,2.676,0.464v-1.737c-0.816-0.227-1.756-0.408-2.676-0.408
	h-0.125c-0.898,0.016-1.783,0.192-2.552,0.406v1.736C-26.889,114.963-25.977,114.754-25.066,114.738z"/>
<path fill="#009EE0" d="M-25.066,117.822h0.102c0.917,0,1.879,0.22,2.676,0.465v-1.738c-0.816-0.227-1.756-0.408-2.676-0.408h-0.125
	c-0.898,0.018-1.783,0.193-2.552,0.406v1.736C-26.889,118.048-25.977,117.839-25.066,117.822z"/>
<path fill="#4F4F4F" d="M25.545,1.637L25.38,1.973L25.545,1.637C25.386,1.564,22.197,0.006,19.08,0h-0.157h-0.004h-0.002
	c-2.443,0.048-4.768,0.964-5.767,1.405C12.112,0.959,9.647,0.004,7.198,0H7.041H7.038H7.035C3.889,0.063,0.904,1.572,0.753,1.645
	C0.276,1.889,0.001,2.398,0,2.941v16.06c0,0.381,0.135,0.73,0.364,0.992c0.228,0.262,0.562,0.438,0.935,0.438h0.106
	c0.178,0,0.355-0.041,0.518-0.119l0,0c0,0,0.001-0.002,0.002-0.002c0.001,0,0.002,0,0.003,0l0,0c0.451-0.217,2.864-1.303,5.151-1.34
	L7.2,18.968c2.249-0.006,4.844,1.127,5.32,1.352c0.156,0.07,0.327,0.111,0.504,0.111h0.111h0.014h0.018h0.121
	c0.178,0,0.354-0.041,0.516-0.119l0,0c0.001-0.002,0.004-0.002,0.005-0.002c0.001-0.002,0.001-0.002,0.002-0.002l0,0
	c0.456-0.217,2.866-1.301,5.15-1.338l0.121-0.002c2.25-0.006,4.846,1.127,5.32,1.352c0.155,0.072,0.328,0.111,0.505,0.111h0.109
	c0.373,0,0.708-0.176,0.936-0.438c0.229-0.262,0.363-0.611,0.363-0.992V2.941C26.313,2.392,26.031,1.878,25.545,1.637z
	 M18.919,16.113h-0.002c-1.655,0.031-3.256,0.463-4.438,0.879V3.905c0.976-0.402,2.759-1.019,4.481-1.048l0,0h0.121
	c1.701-0.003,3.607,0.644,4.636,1.058v13.09c-1.247-0.434-2.945-0.893-4.637-0.895h-0.005L18.919,16.113z M7.037,16.113H7.035
	c-1.656,0.031-3.255,0.463-4.438,0.879V3.905c0.975-0.402,2.76-1.019,4.481-1.048l0,0H7.2c1.702-0.003,3.606,0.644,4.636,1.058
	v13.09c-1.247-0.434-2.946-0.893-4.638-0.895H7.193L7.037,16.113z"/>
<path fill="#009EE0" d="M348.27,125.693l-0.156,0.002c-1.124,0.021-2.234,0.236-3.198,0.504v2.181
	c0.943-0.293,2.088-0.557,3.228-0.577l0.127-0.002c1.151,0,2.357,0.274,3.354,0.581v-2.179
	C350.6,125.918,349.425,125.693,348.27,125.693z"/>
<path fill="#009EE0" d="M331.412,126.735v-7.313h-1.848v8.786c0,0.582,0.414,1.055,0.924,1.055h0.106
	c0.122,0,0.243-0.028,0.357-0.084c0.208-0.098,0.82-0.374,1.635-0.653v-2.195C332.154,126.464,331.755,126.603,331.412,126.735z"/>
<path fill="#009EE0" d="M63.893,1.972c-0.134-0.064-3.304-1.598-6.3-1.598h-0.156c-2.469,0.045-4.889,1.037-5.771,1.438
	c-0.916-0.405-3.492-1.438-5.954-1.438h-0.156c-3.032,0.056-5.995,1.541-6.118,1.604c-0.334,0.168-0.549,0.547-0.549,0.963v16.061
	c0,0.582,0.414,1.055,0.924,1.055h0.106c0.122,0,0.243-0.028,0.357-0.084c0.466-0.22,2.91-1.334,5.31-1.377l0.126-0.002
	c2.365,0,4.979,1.154,5.479,1.385c0.11,0.051,0.228,0.078,0.347,0.078h0.111c0.008,0,0.015-0.003,0.022-0.004
	c0.008,0.001,0.015,0.004,0.022,0.004H51.8c0.121,0,0.244-0.028,0.355-0.084c0.467-0.22,2.912-1.334,5.311-1.377l0.127-0.002
	c2.366,0,4.979,1.154,5.479,1.385c0.109,0.051,0.228,0.078,0.348,0.078h0.109c0.51,0,0.924-0.473,0.924-1.055V2.941
	C64.452,2.52,64.231,2.138,63.893,1.972z M50.724,17.541c-1.242-0.471-3.155-1.055-5.013-1.055l-0.156,0.002
	c-1.837,0.033-3.638,0.586-4.819,1.04V3.654c0.929-0.398,2.902-1.137,4.85-1.172h0.126c1.929,0,4.032,0.771,5.013,1.18V17.541z
	 M62.604,17.541c-1.242-0.471-3.154-1.055-5.012-1.055l-0.156,0.002c-1.836,0.033-3.638,0.586-4.82,1.04V3.654
	c0.93-0.398,2.902-1.137,4.85-1.172h0.127c1.928,0,4.033,0.771,5.012,1.18V17.541z"/>
<g>
	<path fill="#009EE0" d="M88.058,101.198h0.102c0.917,0,1.879,0.219,2.676,0.464v-1.738c-0.816-0.226-1.756-0.408-2.676-0.408
		l-0.125,0c-0.898,0.016-1.783,0.192-2.552,0.407v1.735C86.235,101.424,87.148,101.215,88.058,101.198z"/>
	<path fill="#009EE0" d="M88.058,104.299h0.102c0.917,0,1.879,0.219,2.676,0.464v-1.738c-0.816-0.226-1.756-0.408-2.676-0.408
		l-0.125,0c-0.898,0.016-1.783,0.192-2.552,0.407v1.735C86.235,104.524,87.148,104.315,88.058,104.299z"/>
	<path fill="#009EE0" d="M88.058,107.383h0.102c0.917,0,1.879,0.22,2.676,0.464v-1.738c-0.816-0.226-1.756-0.409-2.676-0.409h-0.125
		c-0.898,0.018-1.783,0.193-2.552,0.407v1.736C86.235,107.609,87.148,107.4,88.058,107.383z"/>
	<path fill="#009EE0" d="M99.996,101.206h0.102c0.917,0,1.879,0.219,2.676,0.464v-1.738c-0.816-0.226-1.756-0.408-2.676-0.408
		l-0.125,0c-0.898,0.016-1.783,0.192-2.552,0.407v1.735C98.173,101.432,99.085,101.223,99.996,101.206z"/>
	<path fill="#009EE0" d="M99.996,104.307h0.102c0.917,0,1.879,0.219,2.676,0.464v-1.738c-0.816-0.226-1.756-0.408-2.676-0.408
		l-0.125,0c-0.898,0.016-1.783,0.192-2.552,0.407v1.735C98.173,104.532,99.085,104.323,99.996,104.307z"/>
	<path fill="#009EE0" d="M99.996,107.391h0.102c0.917,0,1.879,0.22,2.676,0.464v-1.738c-0.816-0.226-1.756-0.409-2.676-0.409h-0.125
		c-0.898,0.018-1.783,0.193-2.552,0.407v1.736C98.173,107.617,99.085,107.408,99.996,107.391z"/>
	<path fill="#009EE0" d="M106.437,95.774c-0.134-0.064-3.304-1.598-6.3-1.598H99.98c-2.469,0.045-4.889,1.037-5.771,1.438
		c-0.916-0.405-3.492-1.438-5.954-1.438h-0.156c-3.032,0.056-5.995,1.541-6.118,1.604c-0.334,0.168-0.549,0.547-0.549,0.963v16.06
		c0,0.582,0.414,1.055,0.924,1.055h0.106c0.122,0,0.243-0.027,0.357-0.084c0.466-0.219,2.91-1.334,5.31-1.377l0.126-0.002
		c2.365,0,4.979,1.154,5.479,1.385c0.11,0.051,0.228,0.078,0.347,0.078h0.111c0.008,0,0.015-0.002,0.022-0.004
		c0.008,0.002,0.015,0.004,0.022,0.004h0.107c0.121,0,0.244-0.027,0.355-0.084c0.467-0.219,2.912-1.334,5.311-1.377l0.127-0.002
		c2.366,0,4.979,1.154,5.479,1.385c0.109,0.051,0.228,0.078,0.348,0.078h0.109c0.51,0,0.924-0.473,0.924-1.055v-16.06
		C106.996,96.322,106.775,95.94,106.437,95.774z M93.268,111.342c-1.242-0.471-3.155-1.055-5.013-1.055l-0.156,0.002
		c-1.837,0.033-3.638,0.586-4.819,1.041V97.456c0.929-0.398,2.902-1.137,4.85-1.172h0.126c1.929,0,4.032,0.771,5.013,1.18V111.342z
		 M105.148,111.342c-1.242-0.471-3.154-1.055-5.012-1.055l-0.156,0.002c-1.836,0.033-3.638,0.586-4.82,1.041V97.456
		c0.93-0.398,2.902-1.137,4.85-1.172h0.127c1.928,0,4.033,0.771,5.012,1.18V111.342z"/>
</g>
</svg>
