<?xml version="1.0" encoding="utf-8"?>
<!-- Generator: Adobe Illustrator 14.0.0, SVG Export Plug-In . SVG Version: 6.00 Build 43363)  -->
<!DOCTYPE svg PUBLIC "-//W3C//DTD SVG 1.1//EN" "http://www.w3.org/Graphics/SVG/1.1/DTD/svg11.dtd">
<svg version="1.1" id="Vrstva_1" xmlns="http://www.w3.org/2000/svg" xmlns:xlink="http://www.w3.org/1999/xlink" x="0px" y="0px"
	 width="17.734px" height="15.967px" viewBox="0 0 17.734 15.967" enable-background="new 0 0 17.734 15.967" xml:space="preserve">
<g>
	<g>
		<path fill="#00CAF6" d="M2.089,15.967c0.33,0,0.601-0.271,0.601-0.601v-3.724c0-0.33-0.271-0.6-0.601-0.6H0.555
			c-0.33,0-0.601,0.27-0.601,0.6v3.724c0,0.33,0.271,0.601,0.601,0.601H2.089z"/>
	</g>
	<g>
		<path fill="#00CAF6" d="M7.089,15.967c0.33,0,0.601-0.271,0.601-0.601V4.537c0-0.33-0.271-0.6-0.601-0.6H5.555
			c-0.33,0-0.601,0.27-0.601,0.6v10.83c0,0.33,0.271,0.6,0.601,0.6H7.089L7.089,15.967z"/>
	</g>
	<g>
		<path fill="#00CAF6" d="M12.089,15.967c0.329,0,0.601-0.271,0.601-0.601V7.145c0-0.33-0.271-0.6-0.601-0.6h-1.534
			c-0.329,0-0.601,0.27-0.601,0.6v8.223c0,0.33,0.271,0.6,0.601,0.6H12.089L12.089,15.967z"/>
	</g>
	<g>
		<path fill="#00CAF6" d="M17.089,15.967c0.329,0,0.601-0.271,0.601-0.601V0.6c0-0.33-0.271-0.6-0.601-0.6h-1.534
			c-0.329,0-0.601,0.27-0.601,0.6v14.767c0,0.33,0.271,0.6,0.601,0.6H17.089L17.089,15.967z"/>
	</g>
</g>
</svg>
