<?xml version="1.0" encoding="utf-8"?>
<!-- Generator: Adobe Illustrator 14.0.0, SVG Export Plug-In . SVG Version: 6.00 Build 43363)  -->
<!DOCTYPE svg PUBLIC "-//W3C//DTD SVG 1.1//EN" "http://www.w3.org/Graphics/SVG/1.1/DTD/svg11.dtd">
<svg version="1.1" id="Vrstva_1" xmlns="http://www.w3.org/2000/svg" xmlns:xlink="http://www.w3.org/1999/xlink" x="0px" y="0px"
	 width="17.734px" height="15.967px" viewBox="0 0 17.734 15.967" enable-background="new 0 0 17.734 15.967" xml:space="preserve">
<g>
	<g>
		<path fill="#009EE0" d="M2.134,15.967c0.33,0,0.601-0.271,0.601-0.601v-3.724c0-0.33-0.271-0.6-0.601-0.6H0.6
			c-0.33,0-0.601,0.27-0.601,0.6v3.724c0,0.33,0.271,0.601,0.601,0.601H2.134z"/>
	</g>
	<g>
		<path fill="#009EE0" d="M7.134,15.967c0.33,0,0.601-0.271,0.601-0.601V4.537c0-0.33-0.271-0.6-0.601-0.6H5.6
			C5.27,3.937,5,4.207,5,4.537v10.83c0,0.33,0.271,0.6,0.601,0.6H7.134L7.134,15.967z"/>
	</g>
	<g>
		<path fill="#009EE0" d="M12.134,15.967c0.329,0,0.601-0.271,0.601-0.601V7.145c0-0.33-0.271-0.6-0.601-0.6h-1.534
			c-0.329,0-0.601,0.27-0.601,0.6v8.223c0,0.33,0.271,0.6,0.601,0.6H12.134L12.134,15.967z"/>
	</g>
	<g>
		<path fill="#009EE0" d="M17.134,15.967c0.329,0,0.601-0.271,0.601-0.601V0.6c0-0.33-0.271-0.6-0.601-0.6h-1.534
			c-0.329,0-0.601,0.27-0.601,0.6v14.767c0,0.33,0.271,0.6,0.601,0.6H17.134L17.134,15.967z"/>
	</g>
</g>
</svg>
