<?xml version="1.0" encoding="utf-8"?>
<!-- Generator: Adobe Illustrator 14.0.0, SVG Export Plug-In . SVG Version: 6.00 Build 43363)  -->
<!DOCTYPE svg PUBLIC "-//W3C//DTD SVG 1.1//EN" "http://www.w3.org/Graphics/SVG/1.1/DTD/svg11.dtd">
<svg version="1.1" id="Vrstva_1" xmlns="http://www.w3.org/2000/svg" xmlns:xlink="http://www.w3.org/1999/xlink" x="0px" y="0px"
	 width="22.676px" height="22.676px" viewBox="0 0 22.676 22.676" enable-background="new 0 0 22.676 22.676" xml:space="preserve">
<g>
	<path fill="#009DDF" d="M5.669,0C5.669,0,0,0,0,5.669v11.339c0,0,0,5.668,5.669,5.668h11.337c0,0,5.67,0,5.67-5.668V5.669
		c0,0,0-5.669-5.67-5.669H5.669z"/>
	<path fill="#EBF6FC" d="M5.025,5.194l4.049,5.998l-4.149,6.226H9.1l1.15-2.199c0.3-0.602,0.625-1.2,0.924-1.85h0.075
		c0.3,0.625,0.601,1.248,0.951,1.85l1.225,2.199h4.3l-4.074-6.398l4.022-5.823H13.55l-1.075,1.999
		c-0.324,0.601-0.625,1.2-0.95,1.875h-0.05c-0.325-0.601-0.65-1.199-1-1.824l-1.2-2.05L5.025,5.194L5.025,5.194z"/>
</g>
</svg>
