<?xml version="1.0" encoding="UTF-8" standalone="no"?>
<!-- Generator: Adobe Illustrator 14.0.0, SVG Export Plug-In . SVG Version: 6.00 Build 43363)  -->

<svg
   version="1.1"
   id="Vrstva_1"
   x="0px"
   y="0px"
   width="22.676px"
   height="22.676px"
   viewBox="0 0 22.676 22.676"
   enable-background="new 0 0 22.676 22.676"
   xml:space="preserve"
   sodipodi:docname="col-expand_s.svg"
   inkscape:version="1.2.2 (b0a8486541, 2022-12-01)"
   xmlns:inkscape="http://www.inkscape.org/namespaces/inkscape"
   xmlns:sodipodi="http://sodipodi.sourceforge.net/DTD/sodipodi-0.dtd"
   xmlns="http://www.w3.org/2000/svg"
   xmlns:svg="http://www.w3.org/2000/svg"
   xmlns:rdf="http://www.w3.org/1999/02/22-rdf-syntax-ns#"
   xmlns:cc="http://creativecommons.org/ns#"
   xmlns:dc="http://purl.org/dc/elements/1.1/"><metadata
   id="metadata13"><rdf:RDF><cc:Work
       rdf:about=""><dc:format>image/svg+xml</dc:format><dc:type
         rdf:resource="http://purl.org/dc/dcmitype/StillImage" /></cc:Work></rdf:RDF></metadata><defs
   id="defs11" /><sodipodi:namedview
   pagecolor="#ffffff"
   bordercolor="#666666"
   borderopacity="1"
   objecttolerance="10"
   gridtolerance="10"
   guidetolerance="10"
   inkscape:pageopacity="0"
   inkscape:pageshadow="2"
   inkscape:window-width="2560"
   inkscape:window-height="1358"
   id="namedview9"
   showgrid="false"
   inkscape:zoom="29.436796"
   inkscape:cx="16.23818"
   inkscape:cy="12.484375"
   inkscape:window-x="0"
   inkscape:window-y="0"
   inkscape:window-maximized="1"
   inkscape:current-layer="g6"
   inkscape:showpageshadow="2"
   inkscape:pagecheckerboard="0"
   inkscape:deskcolor="#d1d1d1" />
<g
   id="g6"
   transform="rotate(-90,11.338,11.338)">
	<path
   d="M 5.669,0 C 5.669,0 0,0 0,5.669 v 11.339 c 0,0 0,5.668 5.669,5.668 h 11.337 c 0,0 5.67,0 5.67,-5.668 V 5.669 c 0,0 0,-5.669 -5.67,-5.669 z"
   id="path2"
   inkscape:connector-curvature="0"
   style="fill:#00caf6;fill-opacity:1" />
	<path
   d="M 18.672,4.172 H 3.963 V 18.464 H 18.672 M 5.963,7.901 h 10.709 v 8.563 H 5.963 Z"
   id="path4"
   inkscape:connector-curvature="0"
   style="fill:#ebf6fc;fill-opacity:1" />
</g>
<path
   fill="#009ee0"
   d="M 13.510757,10.823533 9.4416581,7.1402743 C 9.1325831,6.8607454 8.8799731,7.0899593 8.8799731,7.6490167 v 7.3683793 c 0,0.55999 0.25261,0.788272 0.561685,0.509675 l 4.0690989,-3.686987 c 0.310263,-0.278597 0.310263,-0.736092 0,-1.016551 z"
   id="path2659"
   style="fill:#ebf6fc;fill-opacity:1;stroke-width:0.744189" /></svg>
