<?xml version="1.0" encoding="utf-8"?>
<!-- Generator: Adobe Illustrator 14.0.0, SVG Export Plug-In . SVG Version: 6.00 Build 43363)  -->
<!DOCTYPE svg PUBLIC "-//W3C//DTD SVG 1.1//EN" "http://www.w3.org/Graphics/SVG/1.1/DTD/svg11.dtd">
<svg version="1.1" id="Vrstva_1" xmlns="http://www.w3.org/2000/svg" xmlns:xlink="http://www.w3.org/1999/xlink" x="0px" y="0px"
	 width="23.413px" height="23.087px" viewBox="0 0 23.413 23.087" enable-background="new 0 0 23.413 23.087" xml:space="preserve">
<path fill="#00CAF6" d="M23.187,9.058c-0.041-0.227-0.262-0.422-0.493-0.434L19.5,8.469c-0.015,0-0.028,0.006-0.043,0.007
	c-0.279-0.645-0.64-1.242-1.063-1.788c0.011-0.016,0.025-0.025,0.034-0.043l1.438-2.863c0.105-0.207,0.046-0.497-0.133-0.645
	L18.76,2.318c-0.176-0.148-0.472-0.156-0.656-0.017l-2.546,1.934c-0.029,0.022-0.046,0.05-0.066,0.076
	c-0.412-0.205-0.841-0.381-1.288-0.519c-0.209-0.064-0.422-0.119-0.638-0.167c0.001-0.032,0.006-0.063-0.002-0.099l-0.737-3.119
	C12.774,0.185,12.541,0,12.309,0l-1.271,0c-0.23,0-0.463,0.184-0.513,0.409L9.817,3.527c-0.01,0.041-0.006,0.077-0.002,0.114
	C9.34,3.749,8.877,3.889,8.438,4.072C8.25,4.15,8.067,4.235,7.886,4.325C7.87,4.306,7.858,4.284,7.834,4.267l-2.57-1.916
	C5.079,2.214,4.783,2.223,4.606,2.371L3.63,3.188C3.454,3.336,3.396,3.625,3.5,3.831l1.463,2.844
	c0.009,0.017,0.022,0.026,0.033,0.041c-0.092,0.12-0.183,0.239-0.269,0.363c-0.308,0.449-0.57,0.933-0.787,1.44
	c-0.007,0-0.013-0.003-0.021-0.003l-3.2,0.185c-0.23,0.013-0.452,0.21-0.492,0.438l-0.222,1.253
	c-0.04,0.228,0.101,0.486,0.314,0.576l2.948,1.238c0.011,0.004,0.021,0.003,0.031,0.006c0.039,0.713,0.161,1.406,0.372,2.063
	c-0.006,0.005-0.013,0.006-0.019,0.012L1.32,16.485c-0.167,0.159-0.21,0.451-0.095,0.651l0.636,1.104
	c0.116,0.199,0.39,0.307,0.61,0.237l3.055-0.945c0.028-0.009,0.048-0.026,0.071-0.039c0.425,0.44,0.897,0.837,1.409,1.178
	c0.06,0.039,0.123,0.073,0.184,0.111c-0.014,0.032-0.028,0.061-0.032,0.097l-0.374,3.185c-0.027,0.228,0.129,0.48,0.346,0.561
	l1.195,0.435c0.218,0.08,0.497-0.015,0.623-0.208l1.73-2.689c0.029-0.045,0.045-0.092,0.053-0.137
	c0.322,0.036,0.646,0.06,0.977,0.06c0.35,0,0.694-0.027,1.035-0.068c0.01,0.043,0.023,0.088,0.052,0.129l1.76,2.679
	c0.126,0.193,0.408,0.287,0.625,0.208l1.196-0.436c0.217-0.079,0.371-0.33,0.341-0.56l-0.4-3.172
	c-0.005-0.043-0.021-0.08-0.039-0.114c0.577-0.368,1.106-0.804,1.576-1.299c0.023,0.015,0.043,0.031,0.073,0.04l3.069,0.92
	c0.221,0.066,0.497-0.043,0.611-0.242l0.639-1.103c0.113-0.199,0.07-0.491-0.099-0.648L19.8,14.245
	c-0.013-0.011-0.027-0.014-0.04-0.023c0.205-0.654,0.325-1.346,0.362-2.057c0.009-0.003,0.02-0.002,0.027-0.006l2.945-1.268
	c0.212-0.092,0.352-0.353,0.311-0.579L23.187,9.058z M10.227,15.132c-0.678-0.282-1.256-0.756-1.658-1.342
	c-0.201-0.294-0.359-0.613-0.467-0.955c-0.107-0.34-0.165-0.7-0.166-1.082c0.001-0.508,0.104-0.979,0.291-1.416
	c0.279-0.651,0.755-1.219,1.359-1.62c0.301-0.2,0.633-0.359,0.988-0.468c0.355-0.108,0.733-0.167,1.133-0.167
	c0.531,0,1.026,0.105,1.479,0.292c0.677,0.282,1.255,0.756,1.657,1.342c0.202,0.293,0.358,0.614,0.467,0.954
	c0.107,0.341,0.166,0.702,0.166,1.082c-0.001,0.508-0.103,0.98-0.289,1.416c-0.28,0.652-0.757,1.22-1.359,1.62
	c-0.303,0.201-0.635,0.359-0.989,0.467c-0.355,0.109-0.733,0.169-1.132,0.169C11.175,15.424,10.68,15.319,10.227,15.132z"/>
</svg>
