<?xml version="1.0" encoding="utf-8"?>
<!-- Generator: Adobe Illustrator 14.0.0, SVG Export Plug-In . SVG Version: 6.00 Build 43363)  -->
<!DOCTYPE svg PUBLIC "-//W3C//DTD SVG 1.1//EN" "http://www.w3.org/Graphics/SVG/1.1/DTD/svg11.dtd">
<svg version="1.1" id="Vrstva_1" xmlns="http://www.w3.org/2000/svg" xmlns:xlink="http://www.w3.org/1999/xlink" x="0px" y="0px"
	 width="33.307px" height="36.586px" viewBox="0 0 33.307 36.586" enable-background="new 0 0 33.307 36.586" xml:space="preserve">
<g>
	<path fill="#009EE0" d="M28.642,17.603h-0.022c0.002-0.097,0.015-0.192,0.015-0.289c0-6.728-5.344-12.182-11.937-12.182
		S4.762,10.586,4.762,17.314c0,0.097,0.012,0.192,0.014,0.289H4.762l1.226,3.914L9.03,31.23h0.012
		c0.787,3.063,3.906,5.355,7.646,5.355s6.859-2.292,7.646-5.355h0.004L28.642,17.603z"/>
	<polygon fill="#009EE0" points="33.307,15.673 28.117,14.722 28.306,17.709 	"/>
	<polygon fill="#009EE0" points="31.327,8.894 26.269,10.557 27.705,13.114 	"/>
	<polygon fill="#009EE0" points="27.979,4.408 23.594,7.619 25.66,9.6 	"/>
	<polygon fill="#009EE0" points="22.648,0.903 19.691,5.692 22.287,6.671 	"/>
	<polygon fill="#009EE0" points="0,15.386 5.224,14.648 4.914,17.625 	"/>
	<polygon fill="#009EE0" points="2.19,8.909 7.3,10.409 5.946,13.01 	"/>
	<polygon fill="#009EE0" points="5.688,4.402 10.073,7.613 8.007,9.594 	"/>
	<polygon fill="#009EE0" points="10.937,1.126 13.893,5.915 11.297,6.894 	"/>
	<polygon fill="#009EE0" points="16.629,0.001 15.257,5.583 18.001,5.583 	"/>
	<circle fill="#F3FCFF" cx="11.582" cy="16.793" r="3.208"/>
	<circle fill="#009EE0" cx="11.581" cy="17.793" r="1"/>
	<circle fill="#F3FCFF" cx="21.832" cy="16.793" r="3.208"/>
	<circle fill="#009EE0" cx="21.831" cy="17.793" r="1"/>
	<path fill="#F3FCFF" d="M19.663,28.866c0,2.653-1.324,4.806-2.958,4.806c-1.635,0-2.957-2.15-2.957-4.806
		c0-2.649,1.322-4.803,2.957-4.803C18.339,24.063,19.663,26.216,19.663,28.866z"/>
</g>
</svg>
