<?xml version="1.0" encoding="utf-8"?>
<!-- Generator: Adobe Illustrator 14.0.0, SVG Export Plug-In . SVG Version: 6.00 Build 43363)  -->
<!DOCTYPE svg PUBLIC "-//W3C//DTD SVG 1.1//EN" "http://www.w3.org/Graphics/SVG/1.1/DTD/svg11.dtd">
<svg version="1.1" id="Vrstva_1" xmlns="http://www.w3.org/2000/svg" xmlns:xlink="http://www.w3.org/1999/xlink" x="0px" y="0px"
	 width="22.168px" height="16.499px" viewBox="0 0 22.168 16.499" enable-background="new 0 0 22.168 16.499" xml:space="preserve">
<path fill="#00CAF6" d="M22.045,0.942c-0.116-0.278-0.312-0.512-0.557-0.678C21.242,0.098,20.942,0,20.625,0H1.542
	C1.331,0,1.126,0.044,0.941,0.121C0.663,0.24,0.429,0.434,0.264,0.679C0.098,0.925-0.001,1.226,0,1.543v13.413
	c0,0.212,0.043,0.417,0.121,0.603c0.118,0.275,0.313,0.511,0.558,0.678c0.245,0.165,0.547,0.264,0.863,0.264h19.083
	c0.211,0,0.416-0.044,0.601-0.122c0.278-0.118,0.513-0.312,0.677-0.558c0.167-0.247,0.266-0.548,0.266-0.864V1.543
	C22.168,1.332,22.125,1.127,22.045,0.942z M11.066,9.423l-1.893-1.8L8.988,7.425L8.976,7.435L2.952,1.709h16.191L11.066,9.423z
	 M7.65,8.676l-5.942,5.563V3.026L7.65,8.676z M8.892,9.855l1.533,1.459c0.219,0.207,0.512,0.284,0.787,0.233
	c0.182-0.025,0.358-0.104,0.501-0.241l1.615-1.542l5.518,5.024H3.619L8.892,9.855z M14.566,8.582l5.891-5.629v10.996L14.566,8.582z"
	/>
</svg>
