<?xml version="1.0" encoding="utf-8"?>
<!-- Generator: Adobe Illustrator 14.0.0, SVG Export Plug-In . SVG Version: 6.00 Build 43363)  -->
<!DOCTYPE svg PUBLIC "-//W3C//DTD SVG 1.1//EN" "http://www.w3.org/Graphics/SVG/1.1/DTD/svg11.dtd">
<svg version="1.1" id="Vrstva_1" xmlns="http://www.w3.org/2000/svg" xmlns:xlink="http://www.w3.org/1999/xlink" x="0px" y="0px"
	 width="22.677px" height="22.677px" viewBox="0 0 22.677 22.677" enable-background="new 0 0 22.677 22.677" xml:space="preserve">
<g>
	<g>
		<path fill="#EA670C" d="M5.669,0C5.669,0,0,0,0,5.669v11.339c0,0,0,5.669,5.669,5.669h11.338c0,0,5.67,0,5.67-5.669V5.669
			c0,0,0-5.669-5.67-5.669H5.669z"/>
		<path fill="#FBE1CE" d="M11.337,20.038c1.35,0,2.225-0.976,2.225-2.275c-0.025-1.35-0.9-2.274-2.225-2.274s-2.25,0.925-2.25,2.274
			c0,1.3,0.9,2.275,2.2,2.275H11.337z M12.762,14.239l0.55-11.322H9.363l0.55,11.322H12.762z"/>
	</g>
</g>
</svg>
