<?xml version="1.0" encoding="utf-8"?>
<!-- Generator: Adobe Illustrator 14.0.0, SVG Export Plug-In . SVG Version: 6.00 Build 43363)  -->
<!DOCTYPE svg PUBLIC "-//W3C//DTD SVG 1.1//EN" "http://www.w3.org/Graphics/SVG/1.1/DTD/svg11.dtd">
<svg version="1.1" id="Vrstva_1" xmlns="http://www.w3.org/2000/svg" xmlns:xlink="http://www.w3.org/1999/xlink" x="0px" y="0px"
	 width="10px" height="10px" viewBox="0 0 10 10" enable-background="new 0 0 10 10" xml:space="preserve">
<g>
	<polygon fill="#009EE0" points="7.191,6.4 5.991,6.4 5.991,8.8 1.2,8.8 1.2,3.996 3.6,3.996 3.6,2.796 1.2,2.796 1.2,2.794 
		0,2.794 0,2.796 0,3.996 0,8.8 0,10 1.2,10 5.991,10 7.191,10 7.193,10 7.193,8.8 7.191,8.8 	"/>
	<polygon fill="#009EE0" points="4.663,0 4.663,0.006 6.609,1.953 3.945,4.618 5.383,6.057 8.048,3.391 9.994,5.337 10,5.337 10,0 	
		"/>
</g>
</svg>
