<?xml version="1.0" encoding="utf-8"?>
<!-- Generator: Adobe Illustrator 14.0.0, SVG Export Plug-In . SVG Version: 6.00 Build 43363)  -->
<!DOCTYPE svg PUBLIC "-//W3C//DTD SVG 1.1//EN" "http://www.w3.org/Graphics/SVG/1.1/DTD/svg11.dtd">
<svg version="1.1" id="Vrstva_1" xmlns="http://www.w3.org/2000/svg" xmlns:xlink="http://www.w3.org/1999/xlink" x="0px" y="0px"
	 width="15.008px" height="9.289px" viewBox="0 0 15.008 9.289" enable-background="new 0 0 15.008 9.289" xml:space="preserve">
<g>
	<path fill="#009DDF" d="M6.918,9.012c1.181,0.784,1.181-0.634,1.181-0.634V0.871c0-1.417-1.181-0.633-1.181-0.633L1.492,3.841
		c-1.182,0.784,0,1.569,0,1.569L6.918,9.012z"/>
	<path fill="#009DDF" d="M0,8.498c0,0.414,0.336,0.75,0.75,0.75S1.5,8.912,1.5,8.498V0.75C1.5,0.336,1.164,0,0.75,0S0,0.336,0,0.75
		V8.498"/>
	<path fill="#009DDF" d="M13.826,9.052c1.182,0.783,1.182-0.633,1.182-0.633V0.911c0-1.417-1.182-0.633-1.182-0.633L8.401,3.881
		c-1.181,0.784,0,1.568,0,1.568L13.826,9.052z"/>
</g>
</svg>
