<?xml version="1.0" encoding="utf-8"?>
<!-- Generator: Adobe Illustrator 14.0.0, SVG Export Plug-In . SVG Version: 6.00 Build 43363)  -->
<!DOCTYPE svg PUBLIC "-//W3C//DTD SVG 1.1//EN" "http://www.w3.org/Graphics/SVG/1.1/DTD/svg11.dtd">
<svg version="1.1" id="Vrstva_1" xmlns="http://www.w3.org/2000/svg" xmlns:xlink="http://www.w3.org/1999/xlink" x="0px" y="0px"
	 width="13.279px" height="20.128px" viewBox="0 3.751 13.279 20.128" enable-background="new 0 3.751 13.279 20.128"
	 xml:space="preserve">
<g>
	<path fill="#379FE3" d="M10.161,11.917c0.543-0.772,0.99-1.714,1.327-2.78c0.386-1.211,0.651-3.773,0.651-3.773
		c0.016-0.152,0.177-0.277,0.358-0.277h0.452c0.181,0,0.329-0.125,0.329-0.278V4.029c0-0.153-0.147-0.278-0.329-0.278h-0.913
		c-0.182,0-0.479,0-0.659,0H1.902c-0.181,0-0.478,0-0.658,0H0.33C0.148,3.751,0,3.875,0,4.029v0.779c0,0.153,0.147,0.278,0.33,0.278
		H0.78c0.182,0,0.344,0.125,0.358,0.277c0,0,0.267,2.562,0.652,3.773c0.45,1.421,1.095,2.622,1.902,3.494
		c0.405,0.437,0.854,0.789,1.348,1.04c0.105,0.054,0.105,0.054,0.105,0.054c0.122,0.05,0.092,0.152-0.064,0.229
		c0,0-0.421,0.202-0.735,0.448c-1.004,0.777-1.797,2.006-2.363,3.527c-0.494,1.343-0.842,4.338-0.842,4.338
		c-0.018,0.152-0.181,0.276-0.362,0.276H0.33c-0.182,0-0.33,0.125-0.33,0.278v0.779c0,0.154,0.147,0.278,0.33,0.278h12.62
		c0.181,0,0.329-0.124,0.329-0.278v-0.779c0-0.153-0.147-0.278-0.329-0.278h-0.449c-0.182,0-0.349-0.124-0.37-0.275
		c0,0-0.604-4.165-1.477-5.757c-0.478-0.874-1.051-1.592-1.72-2.11c-0.316-0.246-0.738-0.448-0.738-0.448
		c-0.156-0.076-0.187-0.178-0.064-0.228c0,0,0,0,0.104-0.054C8.98,13.294,9.617,12.687,10.161,11.917z M10.56,8.964
		c-0.014,0.037-0.173,0.067-0.354,0.067H3.073c-0.182,0-0.341-0.03-0.354-0.067c0,0,0,0-0.011-0.035
		C2.347,7.79,2.09,5.363,2.09,5.363c-0.016-0.152,0.119-0.277,0.3-0.277h8.498c0.181,0,0.316,0.125,0.3,0.277
		c0,0-0.255,2.427-0.618,3.565C10.56,8.964,10.56,8.964,10.56,8.964z M3.489,16.845c0.437-0.804,0.957-1.437,1.502-1.855
		c0.492-0.379,1.173-0.54,1.173-0.54c0.174-0.041,0.316,0.052,0.316,0.204v4.174c0,0.153-0.095,0.374-0.211,0.49L3.29,22.328
		c-0.116,0.117-0.359,0.213-0.541,0.214H2.393c-0.181,0.001-0.312-0.123-0.289-0.274C2.104,22.268,2.687,18.302,3.489,16.845z
		 M10.39,18.167c0.466,1.256,0.795,4.098,0.795,4.098c0.019,0.153-0.116,0.276-0.297,0.276h-0.202c-0.181,0-0.427-0.094-0.546-0.21
		l-3.127-3.029c-0.119-0.115-0.216-0.335-0.216-0.487v-4.162c0-0.153,0.143-0.245,0.316-0.204c0,0,0.687,0.16,1.18,0.541
		C9.11,15.617,9.864,16.733,10.39,18.167z"/>
</g>
</svg>
