<?xml version="1.0" encoding="utf-8"?>
<!-- Generator: Adobe Illustrator 14.0.0, SVG Export Plug-In . SVG Version: 6.00 Build 43363)  -->
<!DOCTYPE svg PUBLIC "-//W3C//DTD SVG 1.1//EN" "http://www.w3.org/Graphics/SVG/1.1/DTD/svg11.dtd">
<svg version="1.1" id="Vrstva_1" xmlns="http://www.w3.org/2000/svg" xmlns:xlink="http://www.w3.org/1999/xlink" x="0px" y="0px"
	 width="22.676px" height="22.678px" viewBox="0 0 22.676 22.678" enable-background="new 0 0 22.676 22.678" xml:space="preserve">
<g>
	<path fill="#009DDF" d="M5.669,0C5.669,0,0,0,0,5.669v11.339c0,0,0,5.67,5.669,5.67h11.337c0,0,5.67,0,5.67-5.67V5.669
		c0,0,0-5.669-5.67-5.669H5.669z"/>
	<path fill="#E9F8FF" d="M11.362,2.449c-1.225,0-2.024,0.824-2.024,1.899c0,1.05,0.775,1.898,1.974,1.898
		c1.274,0,2.05-0.85,2.05-1.898C13.336,3.273,12.586,2.449,11.362,2.449z M13.237,19.97V7.748H9.438V19.97H13.237z"/>
</g>
</svg>
