<?xml version="1.0" encoding="utf-8"?>
<!-- Generator: Adobe Illustrator 14.0.0, SVG Export Plug-In . SVG Version: 6.00 Build 43363)  -->
<!DOCTYPE svg PUBLIC "-//W3C//DTD SVG 1.1//EN" "http://www.w3.org/Graphics/SVG/1.1/DTD/svg11.dtd">
<svg version="1.1" id="Vrstva_1" xmlns="http://www.w3.org/2000/svg" xmlns:xlink="http://www.w3.org/1999/xlink" x="0px" y="0px"
	 width="15.008px" height="9.288px" viewBox="0 0 15.008 9.288" enable-background="new 0 0 15.008 9.288" xml:space="preserve">
<g>
	<path fill="#009DDF" d="M13.516,5.409c0,0,1.181-0.784,0-1.568L8.09,0.238c0,0-1.181-0.784-1.181,0.633v7.508
		c0,0,0,1.417,1.181,0.633L13.516,5.409z"/>
	<path fill="#009DDF" d="M15.008,8.498V0.75c0-0.414-0.336-0.75-0.75-0.75s-0.75,0.336-0.75,0.75v7.748
		c0,0.414,0.336,0.75,0.75,0.75S15.008,8.912,15.008,8.498"/>
	<path fill="#009DDF" d="M6.606,5.449c0,0,1.181-0.784,0-1.568L1.181,0.278c0,0-1.181-0.784-1.181,0.633v7.508
		c0,0,0,1.417,1.181,0.633L6.606,5.449z"/>
</g>
</svg>
