<?xml version="1.0" encoding="UTF-8" standalone="no"?>
<!-- Generator: Adobe Illustrator 14.0.0, SVG Export Plug-In . SVG Version: 6.00 Build 43363)  -->

<svg
   xmlns:dc="http://purl.org/dc/elements/1.1/"
   xmlns:cc="http://creativecommons.org/ns#"
   xmlns:rdf="http://www.w3.org/1999/02/22-rdf-syntax-ns#"
   xmlns:svg="http://www.w3.org/2000/svg"
   xmlns="http://www.w3.org/2000/svg"
   xmlns:sodipodi="http://sodipodi.sourceforge.net/DTD/sodipodi-0.dtd"
   xmlns:inkscape="http://www.inkscape.org/namespaces/inkscape"
   version="1.1"
   id="Light_bulb"
   x="0px"
   y="0px"
   width="642.58398"
   height="438.07001"
   viewBox="0 0 642.58397 438.07002"
   enable-background="new 0 0 438.07 642.584"
   xml:space="preserve"
   sodipodi:docname="lightbulb-pink-horiz.svg"
   inkscape:version="0.92.5 (2060ec1f9f, 2020-04-08)"><metadata
   id="metadata15"><rdf:RDF><cc:Work
       rdf:about=""><dc:format>image/svg+xml</dc:format><dc:type
         rdf:resource="http://purl.org/dc/dcmitype/StillImage" /><dc:title></dc:title></cc:Work></rdf:RDF></metadata><defs
   id="defs13" /><sodipodi:namedview
   pagecolor="#ffffff"
   bordercolor="#666666"
   borderopacity="1"
   objecttolerance="10"
   gridtolerance="10"
   guidetolerance="10"
   inkscape:pageopacity="0"
   inkscape:pageshadow="2"
   inkscape:window-width="1239"
   inkscape:window-height="594"
   id="namedview11"
   showgrid="false"
   inkscape:zoom="0.51939421"
   inkscape:cx="130.58106"
   inkscape:cy="160.3472"
   inkscape:window-x="948"
   inkscape:window-y="437"
   inkscape:window-maximized="0"
   inkscape:current-layer="g8" />
<g
   id="g8"
   transform="translate(0,-204.51398)">
	
	
	<path
   inkscape:connector-curvature="0"
   d="m 517.63582,508.008 v -166.5 l 74.688,-0.506 c 11.825,15.837 21.063,33.341 25.547,53.216 h 25.922 v 61.084 h -25.928 c -4.483,19.861 -13.721,37.385 -25.541,53.211 z"
   id="path2"
   style="fill:#e2007a;fill-opacity:1" /><path
   inkscape:connector-curvature="0"
   d="m 174.13682,643.213 c -81.494,-6.822 -172.928,-64.873 -172.928,-218.439 0,-153.564 91.434,-211.615 172.958,-218.469 129.146,-10.859 173.524,134.067 303.206,134.067 v 168.805 c -129.682,10e-4 -174.06,144.892 -303.236,134.036 z m 121.527,-122.925 c 34.109,-25.479 69.737,-50.164 122.184,-64.222 v -7.19 l -192.64,32.129 -2.961,-17.754 195.601,-32.623 v -11.736 l -195.601,-32.623 2.961,-17.754 192.64,32.125 v -7.162 c -52.441,-14.051 -88.069,-38.741 -122.214,-64.248 -46.188,-34.517 -73.517,-64.499 -115.896,-60.931 -77.329,6.479 -119.06,66.126 -119.06,156.476 0,90.313 40.81,145.646 118.134,152.124 42.382,3.537 70.628,-22.063 116.852,-56.611 z"
   id="path4"
   style="opacity:1;fill:#e2007a;fill-opacity:1" /><path
   inkscape:connector-curvature="0"
   d="m 148.70982,424.76 c 0,-16.186 3.09,-32.373 9.279,-47.623 6.186,-15.248 15.484,-29.557 27.825,-41.892 l 21.213,21.212 c -9.473,9.475 -16.523,20.346 -21.241,31.959 -4.714,11.613 -7.077,23.977 -7.077,36.342 0,12.367 2.362,24.727 7.077,36.339 4.717,11.616 11.771,22.485 21.241,31.959 l -21.213,21.214 c -12.341,-12.335 -21.644,-26.643 -27.825,-41.891 -6.189,-15.248 -9.278,-31.44 -9.279,-47.619 z"
   id="path6"
   style="fill:#e2007a;fill-opacity:1" />
</g>
</svg>