<?xml version="1.0" encoding="utf-8"?>
<!-- Generator: Adobe Illustrator 14.0.0, SVG Export Plug-In . SVG Version: 6.00 Build 43363)  -->
<!DOCTYPE svg PUBLIC "-//W3C//DTD SVG 1.1//EN" "http://www.w3.org/Graphics/SVG/1.1/DTD/svg11.dtd">
<svg version="1.1" id="Light_bulb" xmlns="http://www.w3.org/2000/svg" xmlns:xlink="http://www.w3.org/1999/xlink" x="0px" y="0px"
	 width="11.179px" height="16.346px" viewBox="0 0 11.179 16.346" enable-background="new 0 0 11.179 16.346" xml:space="preserve">
<path fill="#E2007A" d="M11.164,4.412C10.99,2.333,9.509,0,5.59,0c-3.919,0-5.4,2.333-5.575,4.413
	c-0.277,3.295,3.42,4.429,3.42,7.736h4.309C7.744,8.842,11.441,7.708,11.164,4.412z"/>
<path fill="#E2007A" d="M3.432,13.6v1.949c0.57,0.495,1.324,0.798,2.152,0.798c0.828,0,1.583-0.303,2.152-0.798V13.6H3.432z"/>
<path fill="#FFF8FC" d="M10.395,4.615c0.11,1.239-0.299,1.978-1.392,3.329C8.198,8.943,7.525,9.84,7.082,11.375H6.561l0,0H4.754l0,0
	H4.129C3.686,9.841,3.34,9.288,2.534,8.288c-1.09-1.353-1.899-2.502-1.786-3.743c0.205-2.264,2.146-3.887,5.001-3.887
	C8.604,0.657,10.189,2.35,10.395,4.615z"/>
<rect x="4.564" y="5.617" transform="matrix(-0.9868 0.1619 -0.1619 -0.9868 10.8714 16.4274)" fill="#E2007A" width="0.404" height="6.079"/>
<rect x="6.333" y="5.564" transform="matrix(0.9869 0.1611 -0.1611 0.9869 1.4713 -0.9405)" fill="#E2007A" width="0.406" height="6.079"/>
<path fill="#E2007A" d="M3.484,4.749C3.782,4.443,4.125,4.214,4.49,4.061c0.365-0.152,0.755-0.229,1.145-0.229
	c0.389,0,0.777,0.077,1.143,0.229c0.366,0.153,0.709,0.382,1.007,0.688l0.461-0.477C7.886,3.902,7.47,3.623,7.024,3.437
	C6.578,3.251,6.105,3.158,5.635,3.158c-0.473,0-0.945,0.093-1.39,0.278C3.801,3.623,3.383,3.903,3.023,4.274L3.484,4.749z"/>
</svg>
