<?xml version="1.0" encoding="UTF-8" standalone="no"?>
<!-- Generator: Adobe Illustrator 14.0.0, SVG Export Plug-In . SVG Version: 6.00 Build 43363)  -->

<svg
   xmlns:dc="http://purl.org/dc/elements/1.1/"
   xmlns:cc="http://creativecommons.org/ns#"
   xmlns:rdf="http://www.w3.org/1999/02/22-rdf-syntax-ns#"
   xmlns:svg="http://www.w3.org/2000/svg"
   xmlns="http://www.w3.org/2000/svg"
   xmlns:sodipodi="http://sodipodi.sourceforge.net/DTD/sodipodi-0.dtd"
   xmlns:inkscape="http://www.inkscape.org/namespaces/inkscape"
   version="1.1"
   id="Light_bulb"
   x="0px"
   y="0px"
   width="642.58398"
   height="438.07001"
   viewBox="0 0 642.58397 438.07002"
   enable-background="new 0 0 438.07 642.584"
   xml:space="preserve"
   sodipodi:docname="lightbulb-blue-horiz.svg"
   inkscape:version="0.92.5 (2060ec1f9f, 2020-04-08)"><metadata
   id="metadata15"><rdf:RDF><cc:Work
       rdf:about=""><dc:format>image/svg+xml</dc:format><dc:type
         rdf:resource="http://purl.org/dc/dcmitype/StillImage" /><dc:title></dc:title></cc:Work></rdf:RDF></metadata><defs
   id="defs13" /><sodipodi:namedview
   pagecolor="#ffffff"
   bordercolor="#666666"
   borderopacity="1"
   objecttolerance="10"
   gridtolerance="10"
   guidetolerance="10"
   inkscape:pageopacity="0"
   inkscape:pageshadow="2"
   inkscape:window-width="1239"
   inkscape:window-height="594"
   id="namedview11"
   showgrid="false"
   inkscape:zoom="0.064924276"
   inkscape:cx="-27.182965"
   inkscape:cy="-95.291394"
   inkscape:window-x="948"
   inkscape:window-y="437"
   inkscape:window-maximized="0"
   inkscape:current-layer="g8" />
<g
   id="g8"
   transform="translate(0,-204.51398)">
	
	
	<g
   id="g818"
   transform="matrix(0,1,1,0,1.20882,205.725)"><path
     style="fill:#009ee0;fill-opacity:1"
     id="path2"
     d="m 302.283,516.427 h -166.5 l -0.506,74.688 c 15.837,11.825 33.341,21.063 53.216,25.547 v 25.922 h 61.084 v -25.928 c 19.861,-4.483 37.385,-13.721 53.211,-25.541 z"
     inkscape:connector-curvature="0" /><path
     style="opacity:1;fill:#009ee0;fill-opacity:1"
     id="path4"
     d="M 437.488,172.928 C 430.666,91.434 372.615,0 219.049,0 65.485,0 7.434,91.434 0.58,172.958 -10.279,302.104 134.647,346.482 134.647,476.164 H 303.452 C 303.453,346.482 448.344,302.104 437.488,172.928 Z M 314.563,294.455 c -25.479,34.109 -50.164,69.737 -64.222,122.184 h -7.19 l 32.129,-192.64 -17.754,-2.961 -32.623,195.601 h -11.736 l -32.623,-195.601 -17.754,2.961 32.125,192.64 h -7.162 C 173.702,364.198 149.012,328.57 123.505,294.425 88.988,248.237 59.006,220.908 62.574,178.529 69.053,101.2 128.7,59.469 219.05,59.469 c 90.313,0 145.646,40.81 152.124,118.134 3.537,42.382 -22.063,70.628 -56.611,116.852 z"
     inkscape:connector-curvature="0" /><path
     style="fill:#009ee0;fill-opacity:1"
     id="path6"
     d="m 219.035,147.501 c -16.186,0 -32.373,3.09 -47.623,9.279 -15.248,6.186 -29.557,15.484 -41.892,27.825 l 21.212,21.213 c 9.475,-9.473 20.346,-16.523 31.959,-21.241 11.613,-4.714 23.977,-7.077 36.342,-7.077 12.367,0 24.727,2.362 36.339,7.077 11.616,4.717 22.485,11.771 31.959,21.241 l 21.214,-21.213 c -12.335,-12.341 -26.643,-21.644 -41.891,-27.825 -15.248,-6.189 -31.44,-9.278 -47.619,-9.279 z"
     inkscape:connector-curvature="0" /></g>
</g>
</svg>