<?xml version="1.0" encoding="utf-8"?>
<!-- Generator: Adobe Illustrator 14.0.0, SVG Export Plug-In . SVG Version: 6.00 Build 43363)  -->
<!DOCTYPE svg PUBLIC "-//W3C//DTD SVG 1.1//EN" "http://www.w3.org/Graphics/SVG/1.1/DTD/svg11.dtd">
<svg version="1.1" id="Light_bulb" xmlns="http://www.w3.org/2000/svg" xmlns:xlink="http://www.w3.org/1999/xlink" x="0px" y="0px"
	 width="11.178px" height="16.346px" viewBox="-376.123 -131.808 11.178 16.346"
	 enable-background="new -376.123 -131.808 11.178 16.346" xml:space="preserve">
<g>
	<path fill="#009EE0" d="M-364.959-127.396c-0.174-2.079-1.655-4.412-5.574-4.412s-5.4,2.333-5.575,4.413
		c-0.277,3.295,3.421,4.428,3.421,7.737h4.307C-368.38-122.967-364.682-124.1-364.959-127.396z"/>
	<path fill="#009EE0" d="M-372.691-118.209v1.949c0.57,0.496,1.324,0.798,2.152,0.798s1.583-0.302,2.152-0.798v-1.949H-372.691z"/>
	<path fill="#EEFCFF" d="M-365.729-127.195c0.112,1.24-0.299,1.977-1.391,3.33c-0.805,0.999-1.478,1.896-1.922,3.432h-0.521l0,0
		h-1.806l0,0h-0.625c-0.444-1.535-0.789-2.087-1.595-3.087c-1.09-1.352-1.899-2.502-1.786-3.743
		c0.205-2.264,2.146-3.887,5.001-3.887C-367.519-131.151-365.933-129.459-365.729-127.195z"/>
	
		<rect x="-371.572" y="-126.209" transform="matrix(-0.9867 0.1628 -0.1628 -0.9867 -757.8385 -184.2239)" fill="#009EE0" width="0.405" height="6.079"/>
	
		<rect x="-369.811" y="-126.235" transform="matrix(0.9868 0.1617 -0.1617 0.9868 -24.7773 58.1303)" fill="#009EE0" width="0.405" height="6.079"/>
	<path fill="#009EE0" d="M-372.639-127.059c0.298-0.307,0.641-0.536,1.006-0.689c0.366-0.153,0.755-0.23,1.144-0.23
		c0.389,0,0.778,0.077,1.144,0.23c0.365,0.153,0.708,0.382,1.005,0.689l0.461-0.476c-0.359-0.371-0.776-0.65-1.221-0.836
		s-0.917-0.279-1.389-0.279s-0.944,0.093-1.389,0.279s-0.862,0.465-1.222,0.836L-372.639-127.059z"/>
</g>
</svg>
