<?xml version="1.0" encoding="utf-8"?>
<!-- Generator: Adobe Illustrator 14.0.0, SVG Export Plug-In . SVG Version: 6.00 Build 43363)  -->
<!DOCTYPE svg PUBLIC "-//W3C//DTD SVG 1.1//EN" "http://www.w3.org/Graphics/SVG/1.1/DTD/svg11.dtd">
<svg version="1.1" xmlns="http://www.w3.org/2000/svg" xmlns:xlink="http://www.w3.org/1999/xlink" x="0px" y="0px"
	 width="72.599px" height="93.963px" viewBox="0 0 72.599 93.963" enable-background="new 0 0 72.599 93.963" xml:space="preserve">
<g id="Vrstva_1">
	<g>
		<path fill="#009EE0" d="M-159.101-162.171c0,2.75-2.25,5-5,5h-55.06c-2.75,0-5-2.25-5-5v-41.205c0-2.75,2.25-5,5-5h55.06
			c2.75,0,5,2.25,5,5V-162.171z"/>
	</g>
	<g>
		<path fill="#009EE0" d="M385.311-172.111c0,5.5-4.5,10-10,10h-52.599c-5.5,0-10-4.5-10-10v-37.138c0-5.5,4.5-10,10-10h52.599
			c5.5,0,10,4.5,10,10V-172.111z"/>
	</g>
	<circle fill="none" stroke="#009EE0" stroke-width="7.6844" cx="-191.631" cy="-208.375" r="22.391"/>
	<path fill="#009EE0" d="M335.895-242.956c3.369-3.362,7.982-5.431,13.116-5.433c5.134,0.002,9.747,2.07,13.116,5.433
		c3.362,3.369,5.431,7.982,5.433,13.116h7.685c0.002-7.231-2.942-13.814-7.684-18.549c-4.735-4.741-11.318-7.686-18.55-7.684
		c-7.231-0.002-13.814,2.942-18.55,7.684c-4.74,4.735-7.686,11.318-7.684,18.549h7.686
		C330.465-234.974,332.533-239.586,335.895-242.956z"/>
	<polygon fill="#009EE0" points="367.56,-229.839 371.402,-229.839 375.244,-229.839 375.244,-229.84 367.56,-229.84 	"/>
	<rect x="367.56" y="-229.84" fill="#009EE0" width="7.685" height="13.183"/>
	<rect x="322.777" y="-229.84" fill="#009EE0" width="7.686" height="13.183"/>
	<rect x="-185.631" y="-64.847" fill="#009EE0" width="25" height="42.924"/>
	<circle fill="#009EE0" cx="-173.131" cy="-83.604" r="25.815"/>
	<ellipse fill="#009EE0" cx="-173.121" cy="-22.255" rx="12.5" ry="4.791"/>
	<path fill="#FFFFFF" d="M357.163-197.047c0-4.502-3.649-8.152-8.152-8.152s-8.152,3.65-8.152,8.152c0,3.069,1.698,5.74,4.205,7.13
		v12.348h0.03c0.145,0.786,1.834,1.408,3.92,1.408c2.087,0,3.775-0.622,3.919-1.408h0.025v-0.093c0-0.004,0.003-0.009,0.003-0.013
		s-0.003-0.008-0.003-0.012v-12.229C355.465-191.307,357.163-193.978,357.163-197.047z"/>
	<g>
		<path fill="#009EE0" d="M412.599,117.827c0,5.5-4.5,10-10,10H350c-5.5,0-10-4.5-10-10V80.688c0-5.5,4.5-10,10-10h52.599
			c5.5,0,10,4.5,10,10V117.827z"/>
	</g>
	<path fill="#009EE0" d="M363.184,46.981c3.369-3.361,7.982-5.43,13.115-5.432c5.135,0.002,9.748,2.07,13.117,5.432
		c3.361,3.369,5.43,7.982,5.432,13.116h7.686c0.002-7.231-2.943-13.813-7.684-18.55c-4.736-4.74-11.318-7.686-18.551-7.684
		c-7.231-0.002-13.814,2.943-18.549,7.684c-4.741,4.736-7.686,11.318-7.684,18.55h7.685
		C357.753,54.964,359.821,50.351,363.184,46.981z"/>
	<polygon fill="#009EE0" points="394.848,60.099 398.69,60.099 402.533,60.099 402.533,60.098 394.848,60.098 	"/>
	<rect x="394.848" y="60.098" fill="#009EE0" width="7.686" height="13.183"/>
	<rect x="350.066" y="60.098" fill="#009EE0" width="7.685" height="13.183"/>
	<path fill="#FFFFFF" d="M385.178,92.325c0-4.903-3.975-8.878-8.878-8.878c-4.904,0-8.878,3.975-8.878,8.878
		c0,3.342,1.849,6.251,4.579,7.765v13.446h0.034c0.157,0.855,1.996,1.533,4.268,1.533c2.272,0,4.111-0.678,4.269-1.533h0.026v-0.102
		c0-0.005,0.004-0.009,0.004-0.014c0-0.004-0.004-0.009-0.004-0.013V100.09C383.328,98.576,385.178,95.667,385.178,92.325z"/>
	<g>
		<path fill="#009EE0" d="M-128.375,158.981c0,3.068-2.511,5.579-5.579,5.579h-61.44c-3.068,0-5.579-2.511-5.579-5.579v-45.979
			c0-3.068,2.511-5.579,5.579-5.579h61.44c3.068,0,5.579,2.511,5.579,5.579V158.981z"/>
	</g>
	<path fill="#009EE0" d="M-133.008,83.716c3.369-3.362,7.982-5.431,13.116-5.433c5.134,0.002,9.747,2.07,13.116,5.433
		c3.362,3.369,5.431,7.982,5.433,13.115h7.685c0.002-7.23-2.942-13.813-7.684-18.549c-4.735-4.741-11.318-7.686-18.55-7.684
		c-7.231-0.002-13.814,2.942-18.55,7.684c-4.74,4.735-7.686,11.318-7.684,18.549h7.686
		C-138.438,91.698-136.37,87.085-133.008,83.716z"/>
	<polygon fill="#009EE0" points="-146.125,96.832 -142.283,96.832 -138.441,96.832 -138.441,96.831 -146.125,96.831 	"/>
	<rect x="-146.125" y="96.831" fill="#009EE0" width="7.685" height="13.184"/>
	<path fill="#FFFFFF" d="M-154.744,128.871c0-5.483-4.445-9.931-9.93-9.931c-5.485,0-9.931,4.447-9.931,9.931
		c0,3.739,2.068,6.992,5.122,8.687v15.04h0.037c0.176,0.958,2.234,1.716,4.775,1.716s4.599-0.758,4.773-1.716h0.03v-0.113
		c0-0.005,0.004-0.011,0.004-0.015c0-0.006-0.004-0.01-0.004-0.016v-14.896C-156.812,135.863-154.744,132.61-154.744,128.871z"/>
	<polygon fill="#009EE0" points="54.848,26.234 58.69,26.234 62.533,26.234 62.533,26.233 54.848,26.233 	"/>
	<path fill="#009EE0" d="M62.599,36.824h-0.065V26.233c0.002-7.231-2.943-13.813-7.684-18.55C50.113,2.943,43.531-0.002,36.299,0
		C29.067-0.002,22.484,2.943,17.75,7.684c-4.741,4.736-7.686,11.318-7.684,18.55v10.591H10c-5.5,0-10,4.5-10,10v37.139
		c0,5.5,4.5,10,10,10h52.599c5.5,0,10-4.5,10-10V46.824C72.599,41.324,68.099,36.824,62.599,36.824z M17.751,26.233
		c0.002-5.134,2.07-9.747,5.433-13.116c3.369-3.361,7.982-5.43,13.115-5.432c5.135,0.002,9.748,2.07,13.117,5.432
		c3.361,3.369,5.43,7.982,5.432,13.116v10.591H17.751V26.233z M40.598,66.226v13.318l0.004,0.013l-0.004,0.014v0.102h-0.026
		c-0.157,0.855-1.996,1.533-4.269,1.533c-2.271,0-4.11-0.678-4.268-1.533h-0.034V66.226c-2.73-1.514-4.579-4.423-4.579-7.765
		c0-4.903,3.974-8.878,8.878-8.878c4.903,0,8.878,3.975,8.878,8.878C45.178,61.803,43.328,64.712,40.598,66.226z"/>
	<path fill="#009EE0" d="M145.162,36.824h-0.064v-10.59v-0.001h0c0.001-7.231-2.944-13.813-7.684-18.549
		c-4.736-4.74-11.318-7.686-18.551-7.684c-7.231-0.002-13.814,2.943-18.549,7.684c-3.479,3.475-5.984,7.946-7.074,12.936h7.943
		c0.907-2.861,2.487-5.42,4.564-7.502c3.369-3.361,7.982-5.43,13.115-5.432c5.135,0.002,9.748,2.07,13.117,5.432
		c3.361,3.369,5.43,7.982,5.432,13.116v10.59H92.564c-5.5,0-10,4.5-10,10v37.139c0,5.5,4.5,10,10,10h52.598c5.5,0,10-4.5,10-10
		V46.824C155.162,41.324,150.662,36.824,145.162,36.824z M123.162,66.226v13.318l0.004,0.013l-0.004,0.014v0.102h-0.026
		c-0.157,0.855-1.996,1.533-4.269,1.533c-2.271,0-4.11-0.678-4.268-1.533h-0.034V66.226c-2.73-1.514-4.579-4.423-4.579-7.765
		c0-4.903,3.974-8.878,8.878-8.878c4.903,0,8.878,3.975,8.878,8.878C127.742,61.803,125.892,64.712,123.162,66.226z"/>
</g>
<g id="Vrstva_2">
	<polygon fill="#009EE0" points="367.56,-228.478 371.402,-228.478 375.244,-228.478 375.244,-228.479 367.56,-228.479 	"/>
	<path fill="#FFFFFF" d="M128.793-82.022c0-5.484-4.445-9.931-9.93-9.931c-5.485,0-9.931,4.446-9.931,9.931
		c0,3.738,2.068,6.992,5.122,8.686v15.041h0.037c0.176,0.957,2.234,1.715,4.775,1.715s4.599-0.758,4.773-1.715h0.03v-0.113
		c0-0.006,0.004-0.012,0.004-0.016c0-0.006-0.004-0.01-0.004-0.016v-14.896C126.725-75.03,128.793-78.284,128.793-82.022z"/>
	<path fill="#FFFFFF" d="M128.793-80.661c0-5.484-4.445-9.931-9.93-9.931c-5.485,0-9.931,4.446-9.931,9.931
		c0,3.738,2.068,6.992,5.122,8.686v15.041h0.037c0.176,0.957,2.234,1.715,4.775,1.715s4.599-0.758,4.773-1.715h0.03v-0.113
		c0-0.006,0.004-0.01,0.004-0.016c0-0.004-0.004-0.01-0.004-0.014v-14.898C126.725-73.669,128.793-76.923,128.793-80.661z"/>
	<polygon fill="#009EE0" points="394.848,61.46 398.691,61.46 402.533,61.46 402.533,61.459 394.848,61.459 	"/>
	<rect x="394.848" y="61.459" fill="#009EE0" width="7.686" height="13.183"/>
	<rect x="304.512" y="-266.142" fill="#FFFFFF" width="86.625" height="46.893"/>
	<path fill="#009EE0" d="M380.677-241.594c3.369-3.362,7.982-5.431,13.116-5.433c5.134,0.002,9.747,2.07,13.116,5.433
		c3.362,3.369,5.431,7.982,5.433,13.116h7.685c0.002-7.231-2.942-13.814-7.684-18.549c-4.735-4.741-11.318-7.686-18.55-7.684
		c-7.231-0.002-13.814,2.942-18.55,7.684c-4.74,4.735-7.686,11.318-7.684,18.549h7.686
		C375.247-233.612,377.315-238.225,380.677-241.594z"/>
	<rect x="367.56" y="-228.479" fill="#009EE0" width="7.685" height="13.183"/>
	<rect x="412.342" y="-228.479" fill="#009EE0" width="7.685" height="9.23"/>
	<path fill="#009EE0" d="M394.849,41.548c-4.736-4.74-11.318-7.686-18.551-7.684c-7.231-0.002-13.814,2.943-18.549,7.684
		c-3.479,3.475-5.984,7.946-7.074,12.936h7.943c0.907-2.861,2.487-5.42,4.564-7.502c3.369-3.361,7.982-5.43,13.115-5.432
		c5.135,0.002,9.748,2.07,13.117,5.432c3.361,3.369,5.43,7.982,5.432,13.116h7.686C402.534,52.866,399.589,46.284,394.849,41.548z"
		/>
</g>
</svg>
