<?xml version="1.0" encoding="utf-8"?>
<!-- Generator: Adobe Illustrator 14.0.0, SVG Export Plug-In . SVG Version: 6.00 Build 43363)  -->
<!DOCTYPE svg PUBLIC "-//W3C//DTD SVG 1.1//EN" "http://www.w3.org/Graphics/SVG/1.1/DTD/svg11.dtd">
<svg version="1.1" id="Vrstva_1" xmlns="http://www.w3.org/2000/svg" xmlns:xlink="http://www.w3.org/1999/xlink" x="0px" y="0px"
	 width="22.191px" height="29.067px" viewBox="0 0 22.191 29.067" enable-background="new 0 0 22.191 29.067" xml:space="preserve">
<g>
	<path fill="#009EE0" d="M19.581,2.582H6.4c-1.104,0-2,0.896-2,2s0.896,2,2,2h13.181c1.104,0,2-0.896,2-2S20.686,2.582,19.581,2.582
		"/>
	<path fill="#009EE0" d="M18.191,4.582v22.482c0,1.104,0.896,2,2,2s2-0.896,2-2V4.582c0-1.104-0.896-2-2-2
		S18.191,3.478,18.191,4.582"/>
	<path fill="#009EE0" d="M20.184,25.067H6.174c-1.104,0-2,0.896-2,2s0.896,2,2,2h14.009c1.104,0,2-0.896,2-2
		S21.288,25.067,20.184,25.067"/>
	<path fill="#009EE0" d="M13.723,18.69H6.212c-1.104,0-2,0.896-2,2s0.896,2,2,2h7.511c1.104,0,2-0.896,2-2
		S14.827,18.69,13.723,18.69"/>
	<path fill="#009EE0" d="M13.723,12.314H6.212c-1.104,0-2,0.896-2,2s0.896,2,2,2h7.511c1.104,0,2-0.896,2-2
		S14.827,12.314,13.723,12.314"/>
	<path fill="#009EE0" d="M0.917,5.983c0,0-2.062-0.943,0-1.887L9.45,0.194c0,0,2.062-0.942,2.062,1.324v7.043
		c0,0,0,2.268-2.062,1.325L0.917,5.983z"/>
</g>
</svg>
