<?xml version="1.0" encoding="utf-8"?>
<!-- Generator: Adobe Illustrator 14.0.0, SVG Export Plug-In . SVG Version: 6.00 Build 43363)  -->
<!DOCTYPE svg PUBLIC "-//W3C//DTD SVG 1.1//EN" "http://www.w3.org/Graphics/SVG/1.1/DTD/svg11.dtd">
<svg version="1.1" id="Vrstva_1" xmlns="http://www.w3.org/2000/svg" xmlns:xlink="http://www.w3.org/1999/xlink" x="0px" y="0px"
	 width="22.6777px" height="22.6768px" viewBox="0 0 22.6777 22.6768" enable-background="new 0 0 22.6777 22.6768"
	 xml:space="preserve">
<g>
	<defs>
		<rect id="SVGID_1_" width="22.6768" height="22.6768"/>
	</defs>
	<clipPath id="SVGID_2_">
		<use xlink:href="#SVGID_1_"  overflow="visible"/>
	</clipPath>
	<path clip-path="url(#SVGID_2_)" fill="#009EE0" d="M5.6694,0c0,0-5.6689,0-5.6689,5.6689v11.3389c0,0,0,5.6689,5.6689,5.6689
		h11.3389c0,0,5.6694,0,5.6694-5.6689V5.6689c0,0,0-5.6689-5.6694-5.6689H5.6694z"/>
</g>
<line fill="none" stroke="#99D8F3" stroke-width="1.5" stroke-linecap="round" x1="19.0479" y1="4.5352" x2="3.6289" y2="4.5352"/>
<line fill="none" stroke="#E6F5FC" stroke-width="1.5" stroke-linecap="round" x1="19.0479" y1="9.0703" x2="3.6289" y2="9.0703"/>
<line fill="none" stroke="#99D8F3" stroke-width="1.5" stroke-linecap="round" x1="19.0479" y1="13.6055" x2="3.6289" y2="13.6055"/>
<line fill="none" stroke="#99D8F3" stroke-width="1.5" stroke-linecap="round" x1="19.0479" y1="18.1416" x2="3.6289" y2="18.1416"/>
<g>
	<defs>
		<rect id="SVGID_3_" width="22.6768" height="22.6768"/>
	</defs>
	<clipPath id="SVGID_4_">
		<use xlink:href="#SVGID_3_"  overflow="visible"/>
	</clipPath>
	
		<line clip-path="url(#SVGID_4_)" fill="none" stroke="#FAFDFE" stroke-width="1.8" x1="12.6113" y1="13.8975" x2="18.1665" y2="19.5498"/>
</g>
<polygon fill="#FAFDFE" points="7.9629,9.168 12.3931,18.8877 17.604,13.7666 "/>
</svg>
