<?xml version="1.0" encoding="utf-8"?>
<!-- Generator: Adobe Illustrator 14.0.0, SVG Export Plug-In . SVG Version: 6.00 Build 43363)  -->
<!DOCTYPE svg PUBLIC "-//W3C//DTD SVG 1.1//EN" "http://www.w3.org/Graphics/SVG/1.1/DTD/svg11.dtd">
<svg version="1.1" id="Vrstva_1" xmlns="http://www.w3.org/2000/svg" xmlns:xlink="http://www.w3.org/1999/xlink" x="0px" y="0px"
	 width="19.293px" height="23.714px" viewBox="0 0 19.293 23.714" enable-background="new 0 0 19.293 23.714" xml:space="preserve">
<path fill="#00CAF6" d="M6.679,0C6.679,0,0,0,0,5.928v11.856c0,0,0,5.93,6.679,5.93h5.937c0,0,6.68,0,6.68-5.93V5.928
	c0,0,0-5.928-6.68-5.928H6.679z"/>
<path fill="#EEFAFF" d="M9.306,20.662c1.375,0,2.25-0.978,2.25-2.271c-0.022-1.354-0.899-2.274-2.25-2.274
	c-1.3,0-2.225,0.928-2.225,2.274C7.083,19.687,7.982,20.662,9.306,20.662z M11.055,14.914v-0.451
	c-0.022-1.123,0.375-2.101,1.271-3.124c0.951-1.05,2.146-2.3,2.146-4.198c0-2.074-1.521-3.897-4.823-3.897
	c-1.773,0-3.249,0.5-4.174,1.023l0.85,2.726c0.65-0.45,1.65-0.75,2.476-0.75c1.25,0.024,1.825,0.625,1.825,1.5
	c0,0.823-0.649,1.648-1.45,2.623c-1.125,1.324-1.55,2.624-1.476,3.899l0.025,0.648H11.055L11.055,14.914z"/>
</svg>
