<?xml version="1.0" encoding="utf-8"?>
<!-- Generator: Adobe Illustrator 14.0.0, SVG Export Plug-In . SVG Version: 6.00 Build 43363)  -->
<!DOCTYPE svg PUBLIC "-//W3C//DTD SVG 1.1//EN" "http://www.w3.org/Graphics/SVG/1.1/DTD/svg11.dtd">
<svg version="1.1" id="Vrstva_1" xmlns="http://www.w3.org/2000/svg" xmlns:xlink="http://www.w3.org/1999/xlink" x="0px" y="0px"
	 width="16.376px" height="22.677px" viewBox="0 0 16.376 22.677" enable-background="new 0 0 16.376 22.677" xml:space="preserve">
<g>
	<path fill="#009DDF" d="M5.669,0C5.669,0,0,0,0,5.669v11.339c0,0,0,5.669,5.669,5.669h5.038c0,0,5.669,0,5.669-5.669V5.669
		c0,0,0-5.669-5.669-5.669H5.669z"/>
	<path fill="#D4ECF9" d="M7.649,20.245c1.375,0,2.25-0.976,2.25-2.275c-0.025-1.35-0.9-2.274-2.25-2.274
		c-1.3,0-2.225,0.925-2.225,2.274C5.425,19.27,6.325,20.245,7.649,20.245z M9.399,14.496v-0.45c-0.025-1.124,0.375-2.1,1.274-3.124
		c0.95-1.05,2.149-2.3,2.149-4.199c0-2.074-1.524-3.898-4.824-3.898c-1.774,0-3.249,0.5-4.174,1.024l0.85,2.725
		c0.65-0.45,1.65-0.75,2.475-0.75c1.25,0.025,1.825,0.625,1.825,1.5c0,0.824-0.65,1.649-1.45,2.624
		c-1.125,1.324-1.55,2.624-1.475,3.899l0.025,0.649H9.399z"/>
</g>
</svg>
