<?xml version="1.0" encoding="UTF-8" standalone="no"?>
<!-- Generator: Adobe Illustrator 14.0.0, SVG Export Plug-In . SVG Version: 6.00 Build 43363)  -->

<svg
   version="1.1"
   id="Vrstva_1"
   x="0px"
   y="0px"
   width="21.439184"
   height="21.279478"
   viewBox="0 0 21.439184 21.279478"
   enable-background="new 0 0 95.874 29.317"
   xml:space="preserve"
   sodipodi:docname="search.svg"
   inkscape:version="1.2.2 (b0a8486541, 2022-12-01)"
   xmlns:inkscape="http://www.inkscape.org/namespaces/inkscape"
   xmlns:sodipodi="http://sodipodi.sourceforge.net/DTD/sodipodi-0.dtd"
   xmlns="http://www.w3.org/2000/svg"
   xmlns:svg="http://www.w3.org/2000/svg"><defs
   id="defs15" /><sodipodi:namedview
   id="namedview13"
   pagecolor="#ffffff"
   bordercolor="#666666"
   borderopacity="1.0"
   inkscape:showpageshadow="2"
   inkscape:pageopacity="0.0"
   inkscape:pagecheckerboard="0"
   inkscape:deskcolor="#d1d1d1"
   showgrid="false"
   inkscape:zoom="8.0499371"
   inkscape:cx="41.863681"
   inkscape:cy="10.248527"
   inkscape:window-width="2560"
   inkscape:window-height="1358"
   inkscape:window-x="1280"
   inkscape:window-y="0"
   inkscape:window-maximized="1"
   inkscape:current-layer="Vrstva_1" />
<path
   fill="#53AA28"
   d="m 6.001717,15.651896 c -2.8673165,-2.867317 -2.8673155,-7.5144237 2e-6,-10.3817415 2.866609,-2.8666107 7.514422,-2.8673176 10.38174,0 2.866611,2.8666108 2.865904,7.5144235 -7.07e-4,10.3810345 -2.867317,2.867318 -7.514424,2.867318 -10.381035,7.07e-4 M 18.443968,2.9946849 C 14.451644,-0.99763929 7.977375,-0.99905329 3.982928,2.9953929 0.33637846,6.6419423 0.02313046,12.360315 3.0403545,16.366074 l -2.70256104,2.702562 c -0.477299,0.477297 -0.444771,1.283399 0.07212,1.800294 0.517603,0.517602 1.32370404,0.550129 1.80100104,0.07283 L 4.893681,18.259 c 4.012832,3.165716 9.848583,2.897724 13.54958,-0.803273 3.994446,-3.994446 3.994446,-10.4673017 7.07e-4,-14.4610411"
   id="path2"
   style="font-variation-settings:normal;opacity:1;vector-effect:none;fill:#009ee0;fill-opacity:1;stroke-width:1;stroke-linecap:butt;stroke-linejoin:miter;stroke-miterlimit:4;stroke-dasharray:none;stroke-dashoffset:0;stroke-opacity:1;-inkscape-stroke:none;stop-color:#000000;stop-opacity:1" />




</svg>
