<?xml version="1.0" encoding="utf-8"?>
<!-- Generator: Adobe Illustrator 14.0.0, SVG Export Plug-In . SVG Version: 6.00 Build 43363)  -->
<!DOCTYPE svg PUBLIC "-//W3C//DTD SVG 1.1//EN" "http://www.w3.org/Graphics/SVG/1.1/DTD/svg11.dtd">
<svg version="1.1" id="Vrstva_1" xmlns="http://www.w3.org/2000/svg" xmlns:xlink="http://www.w3.org/1999/xlink" x="0px" y="0px"
	 width="24.333px" height="23.083px" viewBox="0 0 24.333 23.083" enable-background="new 0 0 24.333 23.083" xml:space="preserve">
<g>
	<polygon fill="#BCBCBC" points="1.247,7.86 1.251,7.859 1.254,7.858 	"/>
	<path fill="#BCBCBC" d="M24.232,8.606c-0.134-0.275-0.349-0.466-0.537-0.572c-0.19-0.109-0.362-0.153-0.512-0.175l-6.735-0.978
		l-3.01-6.102c-0.074-0.147-0.182-0.315-0.376-0.477c-0.188-0.159-0.5-0.305-0.844-0.303c-0.344-0.002-0.654,0.144-0.844,0.303
		c-0.195,0.162-0.302,0.329-0.376,0.477l0,0L7.987,6.881L1.251,7.859c-0.195,0.031-0.438,0.095-0.7,0.307
		C0.422,8.272,0.295,8.421,0.206,8.604C0.116,8.785,0.069,8.995,0.07,9.187c0,0.253,0.072,0.466,0.154,0.625
		c0.084,0.16,0.181,0.275,0.273,0.366l0.005,0.005l4.87,4.745L4.22,21.646l0.002-0.013c-0.013,0.076-0.021,0.158-0.021,0.25
		c0,0.231,0.057,0.566,0.317,0.88c0.127,0.151,0.302,0.282,0.486,0.36c0.184,0.08,0.37,0.109,0.53,0.108
		c0.291-0.002,0.499-0.083,0.659-0.164H6.191l6.026-3.167l6.026,3.165l0.004,0.002c0.159,0.082,0.367,0.162,0.657,0.164
		c0.158,0.001,0.343-0.028,0.525-0.106c0.276-0.113,0.522-0.353,0.647-0.594c0.127-0.242,0.158-0.469,0.159-0.648
		c0-0.094-0.009-0.18-0.022-0.258l-1.148-6.701l4.875-4.75l0.003-0.003c0.093-0.092,0.188-0.207,0.271-0.366
		c0.082-0.158,0.152-0.368,0.152-0.619C24.368,8.996,24.321,8.787,24.232,8.606z M16.639,7.269l-0.001-0.003l0,0L16.639,7.269z
		 M12.191,1.367L12.191,1.367L12.12,1.332L12.191,1.367z M8.426,6.817L8.417,6.818l0,0L8.426,6.817z M1.604,10.334l0.007-0.001l0,0
		L1.604,10.334z M12.218,17.299c-0.236,0.006-0.473,0.033-0.776,0.187L7.076,19.78l0.834-4.863v0.002
		c0.016-0.095,0.022-0.182,0.022-0.262c-0.002-0.244-0.047-0.437-0.12-0.629c-0.077-0.189-0.177-0.381-0.382-0.586l-0.005-0.005
		L3.899,10l4.868-0.707l0.008-0.001c0.336-0.055,0.546-0.171,0.741-0.308c0.19-0.144,0.365-0.306,0.521-0.608l2.182-4.419
		L14.4,8.379V8.38c0.155,0.3,0.33,0.462,0.519,0.604c0.194,0.136,0.403,0.253,0.74,0.307L20.538,10l-3.531,3.441l-0.004,0.004
		c-0.201,0.203-0.299,0.39-0.375,0.579c-0.072,0.189-0.119,0.385-0.121,0.629c0,0.084,0.007,0.176,0.023,0.274l-0.001-0.003
		l0.832,4.854l-4.368-2.296l0.002,0.002C12.691,17.333,12.455,17.305,12.218,17.299z M18.76,15.224l-0.004,0.003L18.76,15.224
		L18.76,15.224z"/>
</g>
</svg>
