<?xml version="1.0" encoding="utf-8"?>
<!-- Generator: Adobe Illustrator 14.0.0, SVG Export Plug-In . SVG Version: 6.00 Build 43363)  -->
<!DOCTYPE svg PUBLIC "-//W3C//DTD SVG 1.1//EN" "http://www.w3.org/Graphics/SVG/1.1/DTD/svg11.dtd">
<svg version="1.1" id="Vrstva_1" xmlns="http://www.w3.org/2000/svg" xmlns:xlink="http://www.w3.org/1999/xlink" x="0px" y="0px"
	 width="24.333px" height="23.083px" viewBox="0 0 24.333 23.083" enable-background="new 0 0 24.333 23.083" xml:space="preserve">
<g>
	<polygon fill="#009EE0" points="18.248,23.069 18.246,23.068 18.246,23.068 	"/>
	<path fill="#009EE0" d="M24.232,8.606c-0.134-0.275-0.349-0.465-0.537-0.572c-0.191-0.109-0.363-0.153-0.512-0.176l-6.735-0.978
		l-3.01-6.102c-0.074-0.147-0.181-0.315-0.376-0.477c-0.189-0.159-0.5-0.305-0.844-0.303c-0.344-0.002-0.654,0.144-0.844,0.303
		c-0.195,0.162-0.302,0.329-0.376,0.477l0.003-0.006L7.987,6.881L1.262,7.857L1.254,7.858c-0.195,0.031-0.44,0.095-0.703,0.308
		C0.422,8.272,0.295,8.421,0.206,8.604C0.116,8.785,0.069,8.995,0.07,9.187c0,0.253,0.071,0.465,0.154,0.624
		c0.084,0.161,0.181,0.275,0.274,0.367l0.005,0.005l4.869,4.744l-1.151,6.709v-0.001c-0.013,0.074-0.021,0.156-0.021,0.248
		c0,0.232,0.057,0.567,0.317,0.88c0.127,0.152,0.303,0.283,0.486,0.361c0.184,0.079,0.37,0.109,0.53,0.108
		c0.291-0.002,0.498-0.082,0.658-0.164l0-0.001l6.026-3.166l6.027,3.167c0.161,0.082,0.368,0.162,0.659,0.164
		c0.158,0.001,0.343-0.028,0.526-0.106c0.277-0.114,0.523-0.354,0.646-0.595c0.128-0.242,0.159-0.468,0.16-0.647
		c0-0.095-0.01-0.18-0.022-0.257v0.003l-1.149-6.704l4.875-4.75l0.003-0.003c0.093-0.092,0.188-0.207,0.271-0.367
		c0.082-0.158,0.151-0.369,0.151-0.619C24.367,8.996,24.321,8.787,24.232,8.606z M5.682,15.229L5.682,15.229L5.682,15.229
		L5.682,15.229z M5.445,14.503l0-0.001L5.445,14.503L5.445,14.503z M16.639,7.269l-0.001-0.003l0,0L16.639,7.269z M8.426,6.817
		L8.417,6.818v0L8.426,6.817z M5.036,20.852L5.036,20.852l-0.001,0.001L5.036,20.852z"/>
</g>
</svg>
