<?xml version="1.0" encoding="utf-8"?>
<!-- Generator: Adobe Illustrator 14.0.0, SVG Export Plug-In . SVG Version: 6.00 Build 43363)  -->
<!DOCTYPE svg PUBLIC "-//W3C//DTD SVG 1.1//EN" "http://www.w3.org/Graphics/SVG/1.1/DTD/svg11.dtd">
<svg version="1.1" id="Vrstva_1" xmlns="http://www.w3.org/2000/svg" xmlns:xlink="http://www.w3.org/1999/xlink" x="0px" y="0px"
	 width="15.0078px" height="9.2891px" viewBox="0 0 15.0078 9.2891" enable-background="new 0 0 15.0078 9.2891"
	 xml:space="preserve">
<g>
	<path fill="#009EE0" d="M1.209,7.1104C1.1714,7.1064,1.1392,7.0889,1.1006,7.0889C0.4937,7.0889,0,7.5811,0,8.1885
		c0,0.6094,0.4937,1.1006,1.1006,1.1006s1.0996-0.4912,1.0996-1.1006c0-0.3711-0.1953-0.6826-0.4766-0.8818l1.9927-4.354
		c-0.1826-0.0449-0.3525-0.1201-0.502-0.2251L1.209,7.1104z"/>
	<path fill="#009EE0" d="M6.5098,7.4072C6.3081,7.6064,6.1826,7.8828,6.1826,8.1885c0,0.6094,0.4922,1.1006,1.0996,1.1006
		s1.1006-0.4912,1.1006-1.1006c0-0.6074-0.4932-1.0996-1.1006-1.0996c-0.1021,0-0.1934,0.0322-0.2871,0.0576L4.9614,2.7026
		c-0.147,0.1089-0.314,0.1895-0.4951,0.2388L6.5098,7.4072z"/>
	<path fill="#009EE0" d="M13.9063,7.0889c-0.0771,0-0.1455,0.0293-0.2188,0.0439l-0.5371-0.9932
		c0.208-0.2002,0.3398-0.4785,0.3398-0.79c0-0.6079-0.4922-1.1001-1.1006-1.1001c-0.3262,0-0.6104,0.1479-0.8125,0.373
		L5.5508,1.7202C5.5225,1.9087,5.46,2.084,5.3687,2.2427l5.9683,2.8745C11.3193,5.1943,11.29,5.2676,11.29,5.3496
		c0,0.252,0.0996,0.4736,0.2422,0.6592l-0.6104,1.127c-0.0781-0.0176-0.1514-0.0469-0.2344-0.0469
		c-0.6055,0-1.0996,0.4912-1.0996,1.0996c0,0.6094,0.4941,1.1006,1.0996,1.1006c0.6084,0,1.1006-0.4912,1.1006-1.1006
		c0-0.3252-0.1465-0.6094-0.3711-0.8105l0.5488-1.0146c0.1299,0.0547,0.2734,0.0859,0.4238,0.0859
		c0.0967,0,0.1836-0.0313,0.2725-0.0547l0.5283,0.9756c-0.2305,0.2012-0.3828,0.4883-0.3828,0.8184
		c0,0.6094,0.4922,1.1006,1.0986,1.1006c0.6084,0,1.1016-0.4912,1.1016-1.1006C15.0078,7.5811,14.5146,7.0889,13.9063,7.0889z"/>
	<path fill="#E2007A" d="M5.5728,1.5c0-0.8281-0.6714-1.5-1.4995-1.5C3.2441,0,2.5728,0.6719,2.5728,1.5
		c0,0.5088,0.2544,0.9565,0.6416,1.2275c0.1494,0.105,0.3193,0.1802,0.502,0.2251C3.8311,2.981,3.9497,3,4.0732,3
		C4.21,3,4.3403,2.9756,4.4663,2.9414c0.1812-0.0493,0.3481-0.1299,0.4951-0.2388c0.1665-0.123,0.3037-0.2798,0.4072-0.46
		C5.46,2.084,5.5225,1.9087,5.5508,1.7202C5.5615,1.6479,5.5728,1.5757,5.5728,1.5z"/>
</g>
</svg>
