<?xml version="1.0" encoding="utf-8"?>
<!-- Generator: Adobe Illustrator 14.0.0, SVG Export Plug-In . SVG Version: 6.00 Build 43363)  -->
<!DOCTYPE svg PUBLIC "-//W3C//DTD SVG 1.1//EN" "http://www.w3.org/Graphics/SVG/1.1/DTD/svg11.dtd">
<svg version="1.1"
	 id="Vrstva_1" inkscape:version="1.0.1 (3bc2e813f5, 2020-09-07)" sodipodi:docname="switch_off_2.svg" xmlns:inkscape="http://www.inkscape.org/namespaces/inkscape" xmlns:sodipodi="http://sodipodi.sourceforge.net/DTD/sodipodi-0.dtd" xmlns:dc="http://purl.org/dc/elements/1.1/" xmlns:cc="http://creativecommons.org/ns#" xmlns:rdf="http://www.w3.org/1999/02/22-rdf-syntax-ns#" xmlns:svg="http://www.w3.org/2000/svg"
	 xmlns="http://www.w3.org/2000/svg" xmlns:xlink="http://www.w3.org/1999/xlink" x="0px" y="0px" width="50px" height="28.102px"
	 viewBox="0 0 50 28.102" enable-background="new 0 0 50 28.102" xml:space="preserve">
<sodipodi:namedview  id="namedview1458" inkscape:window-maximized="1" inkscape:window-x="-9" inkscape:window-y="-9" inkscape:current-layer="Vrstva_1" inkscape:pageshadow="2" inkscape:pageopacity="0" inkscape:window-width="1920" inkscape:window-height="1001" borderopacity="1" bordercolor="#666666" pagecolor="#ffffff" showgrid="false" gridtolerance="10" guidetolerance="10" objecttolerance="10" inkscape:cx="13.031807" inkscape:zoom="10.442293" inkscape:cy="30.345899">
	</sodipodi:namedview>
<path id="path1451" fill="#F7F7F7" d="M35.938,1.744H14.05c-6.785,0-12.306,5.521-12.306,12.306c0,6.786,5.521,12.308,12.306,12.308
	h21.89c6.785,0,12.308-5.521,12.308-12.308C48.245,7.265,42.725,1.744,35.938,1.744z"/>
<path id="path1453" fill="#959595" d="M35.938,1.744V0H14.05c-1.933,0-3.785,0.394-5.466,1.105c-2.522,1.069-4.664,2.851-6.18,5.09
	C0.888,8.438-0.001,11.149,0,14.05c-0.001,1.933,0.394,3.786,1.106,5.466c1.069,2.523,2.85,4.664,5.091,6.182
	c2.24,1.518,4.951,2.404,7.853,2.404h21.89c1.935,0,3.785-0.395,5.465-1.105c2.522-1.07,4.666-2.852,6.183-5.092
	s2.404-4.951,2.403-7.854c0.001-1.933-0.395-3.784-1.106-5.465c-1.067-2.523-2.85-4.665-5.091-6.183
	C41.552,0.887,38.84-0.001,35.938,0V1.744v1.742c1.459,0,2.845,0.297,4.105,0.83c1.893,0.804,3.512,2.146,4.65,3.833
	c0.57,0.845,1.021,1.772,1.33,2.764c0.31,0.988,0.477,2.042,0.477,3.136c0,1.46-0.296,2.844-0.831,4.104
	c-0.801,1.895-2.146,3.512-3.832,4.652c-0.845,0.568-1.772,1.021-2.763,1.328c-0.99,0.311-2.042,0.477-3.137,0.477H14.05
	c-1.46,0-2.843-0.295-4.105-0.832c-1.894-0.801-3.512-2.145-4.652-3.832c-0.571-0.844-1.021-1.771-1.33-2.763
	c-0.309-0.989-0.476-2.042-0.476-3.137c0.001-1.459,0.296-2.842,0.831-4.105c0.801-1.89,2.145-3.508,3.832-4.648
	c0.844-0.571,1.773-1.022,2.763-1.331c0.99-0.311,2.042-0.477,3.136-0.477h21.889V1.744z"/>
<circle id="circle1455" fill="#959595" cx="29.372" cy="14.067" r="6.676"/>
</svg>
