<?xml version="1.0" encoding="utf-8"?>
<!-- Generator: Adobe Illustrator 14.0.0, SVG Export Plug-In . SVG Version: 6.00 Build 43363)  -->
<!DOCTYPE svg PUBLIC "-//W3C//DTD SVG 1.1//EN" "http://www.w3.org/Graphics/SVG/1.1/DTD/svg11.dtd">
<svg version="1.1" id="Vrstva_1" xmlns="http://www.w3.org/2000/svg" xmlns:xlink="http://www.w3.org/1999/xlink" x="0px" y="0px"
	 width="50px" height="28.102px" viewBox="0 0 50 28.102" enable-background="new 0 0 50 28.102" xml:space="preserve">
<path fill="#E1F9FF" d="M14.05,26.357h21.889c6.785,0,12.306-5.521,12.306-12.306c0-6.786-5.521-12.308-12.306-12.308H14.05
	c-6.785,0-12.307,5.521-12.307,12.308C1.743,20.836,7.265,26.357,14.05,26.357z"/>
<path fill="#009EE0" d="M14.05,26.357v1.743l21.889,0.001c1.933,0,3.784-0.395,5.466-1.107c2.522-1.068,4.664-2.849,6.181-5.09
	c1.516-2.241,2.404-4.952,2.403-7.853c0.001-1.933-0.395-3.786-1.106-5.466c-1.069-2.523-2.85-4.664-5.091-6.182
	C41.551,0.888,38.84,0,35.938,0H14.05c-1.934,0-3.785,0.395-5.466,1.107c-2.522,1.07-4.665,2.85-6.181,5.09
	C0.888,8.439-0.001,11.15,0,14.051c-0.001,1.933,0.394,3.784,1.106,5.465c1.069,2.522,2.85,4.664,5.091,6.181
	c2.24,1.516,4.951,2.404,7.853,2.403V26.357v-1.744c-1.459,0-2.843-0.296-4.105-0.83c-1.893-0.802-3.511-2.146-4.651-3.834
	c-0.57-0.843-1.021-1.771-1.33-2.762s-0.476-2.042-0.476-3.136c0-1.46,0.296-2.844,0.831-4.106c0.801-1.893,2.145-3.51,3.832-4.652
	c0.845-0.568,1.773-1.021,2.763-1.328c0.99-0.311,2.042-0.477,3.137-0.477h21.889c1.46,0,2.843,0.295,4.104,0.832
	c1.895,0.801,3.512,2.145,4.652,3.832c0.571,0.844,1.021,1.771,1.33,2.763c0.309,0.989,0.477,2.042,0.477,3.137
	c-0.002,1.459-0.297,2.842-0.831,4.105c-0.802,1.893-2.146,3.511-3.833,4.651c-0.845,0.571-1.773,1.022-2.764,1.331
	s-2.041,0.475-3.136,0.475H14.05V26.357z"/>
<circle fill="#009EE0" cx="36.046" cy="14.051" r="6.676"/>
</svg>
