<?xml version="1.0" encoding="utf-8"?>
<!-- Generator: Adobe Illustrator 14.0.0, SVG Export Plug-In . SVG Version: 6.00 Build 43363)  -->
<!DOCTYPE svg PUBLIC "-//W3C//DTD SVG 1.1//EN" "http://www.w3.org/Graphics/SVG/1.1/DTD/svg11.dtd">
<svg version="1.1" id="Vrstva_1" xmlns="http://www.w3.org/2000/svg" xmlns:xlink="http://www.w3.org/1999/xlink" x="0px" y="0px"
	 width="50px" height="28.102px" viewBox="0 0 50 28.102" enable-background="new 0 0 50 28.102" xml:space="preserve">
<path fill="#E5E5E5" d="M35.938,1.744H14.05c-6.785,0-12.306,5.521-12.306,12.306c0,6.786,5.521,12.308,12.306,12.308h21.889
	c6.785,0,12.307-5.521,12.307-12.308C48.245,7.265,42.724,1.744,35.938,1.744z"/>
<path fill="#565656" d="M35.938,1.744V0H14.05c-1.933,0-3.785,0.394-5.466,1.107c-2.522,1.069-4.664,2.849-6.18,5.09
	C0.888,8.438-0.001,11.149,0,14.05c-0.001,1.933,0.394,3.786,1.106,5.466c1.069,2.523,2.85,4.664,5.091,6.182
	c2.24,1.516,4.951,2.404,7.853,2.404h21.889c1.934,0,3.785-0.395,5.466-1.107c2.522-1.07,4.665-2.85,6.181-5.09
	c1.516-2.242,2.404-4.953,2.403-7.854c0.001-1.933-0.394-3.784-1.106-5.465c-1.069-2.523-2.85-4.665-5.091-6.181
	C41.551,0.888,38.84-0.001,35.938,0V1.744v1.744c1.459,0,2.843,0.295,4.105,0.83c1.893,0.802,3.511,2.146,4.651,3.833
	c0.57,0.843,1.021,1.772,1.33,2.762s0.476,2.042,0.476,3.136c0,1.46-0.296,2.844-0.831,4.106c-0.801,1.893-2.145,3.51-3.832,4.652
	c-0.845,0.568-1.773,1.021-2.763,1.328c-0.99,0.311-2.042,0.477-3.137,0.477H14.05c-1.46,0-2.843-0.295-4.105-0.832
	c-1.894-0.801-3.512-2.145-4.652-3.832c-0.571-0.844-1.021-1.771-1.33-2.763c-0.309-0.989-0.476-2.042-0.476-3.137
	c0.001-1.459,0.296-2.842,0.831-4.105C5.119,8.052,6.463,6.434,8.15,5.293c0.844-0.571,1.773-1.022,2.763-1.331
	c0.99-0.309,2.042-0.475,3.136-0.475h21.889V1.744z"/>
<circle fill="#565656" cx="13.941" cy="14.05" r="6.676"/>
</svg>
