<?xml version="1.0" encoding="utf-8"?>
<!-- Generator: Adobe Illustrator 14.0.0, SVG Export Plug-In . SVG Version: 6.00 Build 43363)  -->
<!DOCTYPE svg PUBLIC "-//W3C//DTD SVG 1.1//EN" "http://www.w3.org/Graphics/SVG/1.1/DTD/svg11.dtd">
<svg version="1.1" id="Vrstva_1" xmlns="http://www.w3.org/2000/svg" xmlns:xlink="http://www.w3.org/1999/xlink" x="0px" y="0px"
	 width="16.238px" height="28.098px" viewBox="33.762 0 16.238 28.098" enable-background="new 33.762 0 16.238 28.098"
	 xml:space="preserve">
<g>
	<path fill="#009EE0" d="M39.236,19.811c0-1.679,0.208-3.013,0.624-4.007c0.414-0.998,1.235-2.089,2.466-3.282
		c1.225-1.19,2.003-2.037,2.33-2.542c0.503-0.767,0.755-1.596,0.755-2.488c0-1.181-0.291-2.083-0.878-2.705
		c-0.585-0.622-1.444-0.934-2.577-0.934c-1.083,0-1.956,0.305-2.614,0.913c-0.661,0.608-0.992,1.434-0.992,2.474h-4.588
		c0.024-2.23,0.785-3.994,2.272-5.292C37.529,0.65,39.502,0,41.956,0c2.53,0,4.503,0.644,5.92,1.928C49.292,3.214,50,5.009,50,7.316
		c0,2.053-0.957,4.075-2.868,6.067l-2.324,2.284c-0.832,0.95-1.26,2.326-1.285,4.144H39.236z M38.917,25.672
		c0-0.739,0.232-1.34,0.698-1.797c0.465-0.456,1.094-0.688,1.889-0.688c0.806,0,1.441,0.235,1.906,0.705
		c0.467,0.47,0.699,1.066,0.699,1.779c0,0.688-0.228,1.27-0.68,1.727c-0.452,0.469-1.096,0.699-1.926,0.699
		c-0.832,0-1.468-0.23-1.919-0.699C39.141,26.942,38.917,26.361,38.917,25.672z"/>
</g>
</svg>
