<?xml version="1.0" encoding="utf-8"?>
<!-- Generator: Adobe Illustrator 14.0.0, SVG Export Plug-In . SVG Version: 6.00 Build 43363)  -->
<!DOCTYPE svg PUBLIC "-//W3C//DTD SVG 1.1//EN" "http://www.w3.org/Graphics/SVG/1.1/DTD/svg11.dtd">
<svg version="1.1" xmlns="http://www.w3.org/2000/svg" xmlns:xlink="http://www.w3.org/1999/xlink" x="0px" y="0px"
	 width="72.598px" height="93.962px" viewBox="0 0 72.598 93.962" enable-background="new 0 0 72.598 93.962" xml:space="preserve">
<g id="Vrstva_1">
	<g>
		<path fill="#009EE0" d="M-241.665-162.172c0,2.75-2.25,5-5,5h-55.06c-2.75,0-5-2.25-5-5v-41.205c0-2.75,2.25-5,5-5h55.06
			c2.75,0,5,2.25,5,5V-162.172z"/>
	</g>
	<g>
		<path fill="#009EE0" d="M302.747-172.112c0,5.5-4.5,10-10,10h-52.599c-5.5,0-10-4.5-10-10v-37.138c0-5.5,4.5-10,10-10h52.599
			c5.5,0,10,4.5,10,10V-172.112z"/>
	</g>
	<circle fill="none" stroke="#009EE0" stroke-width="7.6844" cx="-274.195" cy="-208.376" r="22.391"/>
	<path fill="#009EE0" d="M253.331-242.957c3.369-3.362,7.982-5.431,13.116-5.433c5.134,0.002,9.747,2.07,13.116,5.433
		c3.362,3.369,5.431,7.982,5.433,13.116h7.685c0.002-7.231-2.942-13.814-7.684-18.549c-4.735-4.741-11.318-7.686-18.55-7.684
		c-7.231-0.002-13.814,2.942-18.55,7.684c-4.74,4.735-7.686,11.318-7.684,18.549h7.686
		C247.901-234.975,249.969-239.587,253.331-242.957z"/>
	<polygon fill="#009EE0" points="284.996,-229.84 288.838,-229.84 292.68,-229.84 292.68,-229.841 284.996,-229.841 	"/>
	<rect x="284.996" y="-229.841" fill="#009EE0" width="7.685" height="13.183"/>
	<rect x="240.213" y="-229.841" fill="#009EE0" width="7.686" height="13.183"/>
	<rect x="-268.195" y="-64.848" fill="#009EE0" width="25" height="42.924"/>
	<circle fill="#009EE0" cx="-255.695" cy="-83.604" r="25.815"/>
	<ellipse fill="#009EE0" cx="-255.685" cy="-22.256" rx="12.5" ry="4.791"/>
	<path fill="#FFFFFF" d="M274.599-197.048c0-4.502-3.649-8.152-8.152-8.152s-8.152,3.65-8.152,8.152c0,3.069,1.698,5.74,4.205,7.13
		v12.348h0.03c0.145,0.786,1.834,1.408,3.92,1.408c2.087,0,3.775-0.622,3.919-1.408h0.025v-0.093c0-0.004,0.003-0.009,0.003-0.013
		s-0.003-0.008-0.003-0.012v-12.229C272.901-191.308,274.599-193.979,274.599-197.048z"/>
	<g>
		<path fill="#009EE0" d="M330.035,117.826c0,5.5-4.5,10-10,10h-52.599c-5.5,0-10-4.5-10-10V80.688c0-5.5,4.5-10,10-10h52.599
			c5.5,0,10,4.5,10,10V117.826z"/>
	</g>
	<path fill="#009EE0" d="M280.62,46.98c3.369-3.361,7.982-5.43,13.115-5.432c5.135,0.002,9.748,2.07,13.117,5.432
		c3.361,3.369,5.43,7.982,5.432,13.116h7.686c0.002-7.231-2.943-13.813-7.684-18.55c-4.736-4.74-11.318-7.686-18.551-7.684
		c-7.231-0.002-13.814,2.943-18.549,7.684c-4.741,4.736-7.686,11.318-7.684,18.55h7.685C275.189,54.963,277.257,50.35,280.62,46.98z
		"/>
	<polygon fill="#009EE0" points="312.284,60.098 316.126,60.098 319.969,60.098 319.969,60.097 312.284,60.097 	"/>
	<rect x="312.284" y="60.097" fill="#009EE0" width="7.686" height="13.183"/>
	<rect x="267.502" y="60.097" fill="#009EE0" width="7.685" height="13.183"/>
	<path fill="#FFFFFF" d="M302.614,92.324c0-4.903-3.975-8.878-8.878-8.878c-4.904,0-8.878,3.975-8.878,8.878
		c0,3.342,1.849,6.251,4.579,7.765v13.446h0.034c0.157,0.855,1.996,1.533,4.268,1.533c2.272,0,4.111-0.678,4.269-1.533h0.026v-0.102
		c0-0.005,0.004-0.009,0.004-0.014c0-0.004-0.004-0.009-0.004-0.013v-13.318C300.764,98.575,302.614,95.666,302.614,92.324z"/>
	<g>
		<path fill="#009EE0" d="M-210.938,158.98c0,3.068-2.511,5.579-5.579,5.579h-61.44c-3.068,0-5.579-2.511-5.579-5.579v-45.979
			c0-3.068,2.511-5.579,5.579-5.579h61.44c3.068,0,5.579,2.511,5.579,5.579V158.98z"/>
	</g>
	<path fill="#009EE0" d="M-215.572,83.715c3.369-3.362,7.982-5.431,13.116-5.433c5.134,0.002,9.747,2.07,13.116,5.433
		c3.362,3.369,5.431,7.982,5.433,13.115h7.685c0.002-7.23-2.942-13.813-7.684-18.549c-4.735-4.741-11.318-7.686-18.55-7.684
		c-7.231-0.002-13.814,2.942-18.55,7.684c-4.74,4.735-7.686,11.318-7.684,18.549h7.686
		C-221.002,91.697-218.934,87.084-215.572,83.715z"/>
	<polygon fill="#009EE0" points="-228.689,96.831 -224.847,96.831 -221.005,96.831 -221.005,96.83 -228.689,96.83 	"/>
	<rect x="-228.689" y="96.83" fill="#009EE0" width="7.685" height="13.184"/>
	<path fill="#FFFFFF" d="M-237.308,128.87c0-5.483-4.445-9.931-9.93-9.931c-5.485,0-9.931,4.447-9.931,9.931
		c0,3.739,2.068,6.992,5.122,8.687v15.04h0.037c0.176,0.958,2.234,1.716,4.775,1.716s4.599-0.758,4.773-1.716h0.03v-0.113
		c0-0.005,0.004-0.011,0.004-0.015c0-0.006-0.004-0.01-0.004-0.016v-14.896C-239.376,135.862-237.308,132.609-237.308,128.87z"/>
	<polygon fill="#009EE0" points="-27.716,26.233 -23.874,26.233 -20.031,26.233 -20.031,26.232 -27.716,26.232 	"/>
	<path fill="#009EE0" d="M-19.965,36.823h-0.065V26.232c0.002-7.231-2.943-13.813-7.684-18.55
		c-4.736-4.74-11.318-7.686-18.551-7.684c-7.231-0.002-13.814,2.943-18.549,7.684c-4.741,4.736-7.686,11.318-7.684,18.55v10.591
		h-0.066c-5.5,0-10,4.5-10,10v37.139c0,5.5,4.5,10,10,10h52.599c5.5,0,10-4.5,10-10V46.823
		C-9.965,41.323-14.465,36.823-19.965,36.823z M-64.813,26.232c0.002-5.134,2.07-9.747,5.433-13.116
		c3.369-3.361,7.982-5.43,13.115-5.432c5.135,0.002,9.748,2.07,13.117,5.432c3.361,3.369,5.43,7.982,5.432,13.116v10.591h-37.097
		V26.232z M-41.966,66.225v13.318l0.004,0.013l-0.004,0.014v0.102h-0.026c-0.157,0.855-1.996,1.533-4.269,1.533
		c-2.271,0-4.11-0.678-4.268-1.533h-0.034V66.225c-2.73-1.514-4.579-4.423-4.579-7.765c0-4.903,3.974-8.878,8.878-8.878
		c4.903,0,8.878,3.975,8.878,8.878C-37.386,61.802-39.236,64.711-41.966,66.225z"/>
	<path fill="#009EE0" d="M62.598,36.823h-0.064v-10.59v-0.001h0c0.001-7.231-2.944-13.813-7.684-18.549
		C50.113,2.943,43.531-0.002,36.299,0C29.067-0.002,22.484,2.943,17.75,7.684c-3.479,3.475-5.984,7.946-7.074,12.936h7.943
		c0.907-2.861,2.487-5.42,4.564-7.502c3.369-3.361,7.982-5.43,13.115-5.432c5.135,0.002,9.748,2.07,13.117,5.432
		c3.361,3.369,5.43,7.982,5.432,13.116v10.59H10c-5.5,0-10,4.5-10,10v37.139c0,5.5,4.5,10,10,10h52.598c5.5,0,10-4.5,10-10V46.823
		C72.598,41.323,68.098,36.823,62.598,36.823z M40.598,66.225v13.318l0.004,0.013l-0.004,0.014v0.102h-0.026
		c-0.157,0.855-1.996,1.533-4.269,1.533c-2.271,0-4.11-0.678-4.268-1.533h-0.034V66.225c-2.73-1.514-4.579-4.423-4.579-7.765
		c0-4.903,3.974-8.878,8.878-8.878c4.903,0,8.878,3.975,8.878,8.878C45.178,61.802,43.328,64.711,40.598,66.225z"/>
</g>
<g id="Vrstva_2">
	<polygon fill="#009EE0" points="284.996,-228.479 288.838,-228.479 292.68,-228.479 292.68,-228.479 284.996,-228.479 	"/>
	<path fill="#FFFFFF" d="M46.229-82.023c0-5.484-4.445-9.931-9.93-9.931c-5.485,0-9.931,4.446-9.931,9.931
		c0,3.738,2.068,6.992,5.122,8.686v15.041h0.037c0.176,0.957,2.234,1.715,4.775,1.715s4.599-0.758,4.773-1.715h0.03v-0.113
		c0-0.006,0.004-0.012,0.004-0.016c0-0.006-0.004-0.01-0.004-0.016v-14.896C44.161-75.031,46.229-78.285,46.229-82.023z"/>
	<path fill="#FFFFFF" d="M46.229-80.662c0-5.484-4.445-9.931-9.93-9.931c-5.485,0-9.931,4.446-9.931,9.931
		c0,3.738,2.068,6.992,5.122,8.686v15.041h0.037c0.176,0.957,2.234,1.715,4.775,1.715s4.599-0.758,4.773-1.715h0.03v-0.113
		c0-0.006,0.004-0.01,0.004-0.016c0-0.004-0.004-0.01-0.004-0.014v-14.898C44.161-73.67,46.229-76.924,46.229-80.662z"/>
	<polygon fill="#009EE0" points="312.284,61.459 316.127,61.459 319.969,61.459 319.969,61.458 312.284,61.458 	"/>
	<rect x="312.284" y="61.458" fill="#009EE0" width="7.686" height="13.183"/>
	<rect x="221.948" y="-266.143" fill="#FFFFFF" width="86.625" height="46.893"/>
	<path fill="#009EE0" d="M298.113-241.595c3.369-3.362,7.982-5.431,13.116-5.433c5.134,0.002,9.747,2.07,13.116,5.433
		c3.362,3.369,5.431,7.982,5.433,13.116h7.685c0.002-7.231-2.942-13.814-7.684-18.549c-4.735-4.741-11.318-7.686-18.55-7.684
		c-7.231-0.002-13.814,2.942-18.55,7.684c-4.74,4.735-7.686,11.318-7.684,18.549h7.686
		C292.683-233.613,294.751-238.226,298.113-241.595z"/>
	<rect x="284.996" y="-228.479" fill="#009EE0" width="7.685" height="13.183"/>
	<rect x="329.778" y="-228.479" fill="#009EE0" width="7.685" height="9.23"/>
	<path fill="#009EE0" d="M312.285,41.547c-4.736-4.74-11.318-7.686-18.551-7.684c-7.231-0.002-13.814,2.943-18.549,7.684
		c-3.479,3.475-5.984,7.946-7.074,12.936h7.943c0.907-2.861,2.487-5.42,4.564-7.502c3.369-3.361,7.982-5.43,13.115-5.432
		c5.135,0.002,9.748,2.07,13.117,5.432c3.361,3.369,5.43,7.982,5.432,13.116h7.686C319.97,52.865,317.025,46.283,312.285,41.547z"/>
</g>
</svg>
