<?xml version="1.0" encoding="utf-8"?>
<!-- Generator: Adobe Illustrator 14.0.0, SVG Export Plug-In . SVG Version: 6.00 Build 43363)  -->
<!DOCTYPE svg PUBLIC "-//W3C//DTD SVG 1.1//EN" "http://www.w3.org/Graphics/SVG/1.1/DTD/svg11.dtd">
<svg version="1.1" id="Vrstva_1" xmlns="http://www.w3.org/2000/svg" xmlns:xlink="http://www.w3.org/1999/xlink" x="0px" y="0px"
	 width="23.01px" height="22.993px" viewBox="0 0 23.01 22.993" enable-background="new 0 0 23.01 22.993" xml:space="preserve">
<g>
	<path fill="#009EE0" d="M20.252,0H2.715C2.122,0.047,0.014,0.392,0,2.841V3.5h22.988V2.865C22.988,2.865,22.982,0.094,20.252,0z"/>
	<rect x="22.988" y="6.5" fill="#009EE0" width="0.021" height="3.5"/>
	<rect y="6.5" fill="#009EE0" width="3.715" height="3.5"/>
	<rect x="12.184" y="6.5" fill="#009EE0" width="10.805" height="3.5"/>
	<rect y="13" fill="#009EE0" width="9.941" height="3.5"/>
	<path fill="#009EE0" d="M0,19.5v0.653c0.014,0.358,0.207,2.826,2.873,2.826h7.053V19.5H0z"/>
	<rect x="6.012" y="6.5" fill="#E2007A" width="3.859" height="3.5"/>
	<polyline fill="#E2007A" points="22.957,20.603 18.753,16.397 22.942,12.209 12.16,12.212 12.157,22.979 12.157,22.993 
		12.171,22.979 16.428,18.723 20.626,22.921 	"/>
</g>
</svg>
