<?xml version="1.0" encoding="utf-8"?>
<!-- Generator: Adobe Illustrator 14.0.0, SVG Export Plug-In . SVG Version: 6.00 Build 43363)  -->
<!DOCTYPE svg PUBLIC "-//W3C//DTD SVG 1.1//EN" "http://www.w3.org/Graphics/SVG/1.1/DTD/svg11.dtd">
<svg version="1.1" id="Vrstva_1" xmlns="http://www.w3.org/2000/svg" xmlns:xlink="http://www.w3.org/1999/xlink" x="0px" y="0px"
	 width="23.01px" height="22.993px" viewBox="0 0 23.01 22.993" enable-background="new 0 0 23.01 22.993" xml:space="preserve">
<g>
	<path fill="#009EE0" d="M20.177,0h-4.5v3.5h7.312V2.87C22.989,2.87,22.985,0.043,20.177,0z"/>
	<path fill="#009EE0" d="M7.26,3.5V0H2.781C2.305,0.028,0.01,0.293,0,2.855V3.5H7.26z"/>
	<rect x="9.561" y="0" fill="#E2007A" width="3.859" height="3.5"/>
	<rect x="9.561" y="6.5" fill="#E2007A" width="3.859" height="3.5"/>
	<rect x="0" y="6.5" fill="#009EE0" width="7.26" height="3.5"/>
	<rect x="22.989" y="6.5" fill="#009EE0" width="0.021" height="3.5"/>
	<rect x="15.677" y="6.5" fill="#009EE0" width="7.312" height="3.5"/>
	<rect x="9.561" y="13" fill="#E2007A" width="3.859" height="3.5"/>
	<rect x="0" y="13" fill="#009EE0" width="7.26" height="3.5"/>
	<rect x="22.989" y="13" fill="#009EE0" width="0.021" height="3.5"/>
	<rect x="15.677" y="13" fill="#009EE0" width="7.312" height="3.5"/>
	<path fill="#009EE0" d="M22.989,20.112V19.5h-7.312v3.484h4.438C20.115,22.985,22.989,22.985,22.989,20.112z"/>
	<rect x="9.561" y="22.985" fill="#E2007A" width="3.859" height="0.016"/>
	<rect x="9.561" y="19.5" fill="#E2007A" width="3.859" height="3.484"/>
	<path fill="#009EE0" d="M0,19.5v0.649c0.012,0.332,0.189,2.835,2.873,2.835H7.26V19.5H0z"/>
</g>
</svg>
