<?xml version="1.0" encoding="utf-8"?>
<!-- Generator: Adobe Illustrator 14.0.0, SVG Export Plug-In . SVG Version: 6.00 Build 43363)  -->
<!DOCTYPE svg PUBLIC "-//W3C//DTD SVG 1.1//EN" "http://www.w3.org/Graphics/SVG/1.1/DTD/svg11.dtd">
<svg version="1.1" id="Vrstva_1" xmlns="http://www.w3.org/2000/svg" xmlns:xlink="http://www.w3.org/1999/xlink" x="0px" y="0px"
	 width="22.988px" height="23.103px" viewBox="0.022 -0.109 22.988 23.103" enable-background="new 0.022 -0.109 22.988 23.103"
	 xml:space="preserve">
<g>
	<path fill="#E2007A" d="M20.198,0.009h-4.5v3.5h7.312v-0.63C23.01,2.879,23.006,0.052,20.198,0.009z"/>
	<path fill="#E2007A" d="M7.281,3.509v-3.5H2.803C2.326,0.036,0.031,0.302,0.022,2.864v0.646H7.281z"/>
	<rect x="9.582" y="0.009" fill="#E2007A" width="3.859" height="3.5"/>
	<rect x="9.582" y="6.509" fill="#E2007A" width="3.859" height="3.5"/>
	<rect x="0.022" y="6.509" fill="#E2007A" width="7.26" height="3.5"/>
	<rect x="15.698" y="6.509" fill="#E2007A" width="7.312" height="3.5"/>
	<rect x="9.582" y="13.009" fill="#E2007A" width="3.859" height="3.5"/>
	<rect x="0.022" y="13.009" fill="#E2007A" width="7.26" height="3.5"/>
	<rect x="15.698" y="13.009" fill="#E2007A" width="7.312" height="3.5"/>
	<path fill="#E2007A" d="M23.01,20.12v-0.611h-7.312v3.484h4.438C20.137,22.993,23.01,22.993,23.01,20.12z"/>
	<rect x="9.582" y="19.509" fill="#E2007A" width="3.859" height="3.484"/>
	<path fill="#E2007A" d="M0.022,19.509v0.649c0.012,0.332,0.189,2.835,2.873,2.835h4.387v-3.484H0.022z"/>
	<path fill="#E2007A" d="M19.906-0.109"/>
	<path fill="#E2007A" d="M19.906,9.891"/>
</g>
</svg>
