<?xml version="1.0" encoding="UTF-8" standalone="no"?>
<!-- Generator: Adobe Illustrator 14.0.0, SVG Export Plug-In . SVG Version: 6.00 Build 43363)  -->

<svg
   xmlns:dc="http://purl.org/dc/elements/1.1/"
   xmlns:cc="http://creativecommons.org/ns#"
   xmlns:rdf="http://www.w3.org/1999/02/22-rdf-syntax-ns#"
   xmlns:svg="http://www.w3.org/2000/svg"
   xmlns="http://www.w3.org/2000/svg"
   xmlns:sodipodi="http://sodipodi.sourceforge.net/DTD/sodipodi-0.dtd"
   xmlns:inkscape="http://www.inkscape.org/namespaces/inkscape"
   version="1.1"
   id="Vrstva_1"
   x="0px"
   y="0px"
   width="22.678px"
   height="22.677px"
   viewBox="0 0 22.678 22.677"
   enable-background="new 0 0 22.678 22.677"
   xml:space="preserve"
   sodipodi:docname="warning-icon.svg"
   inkscape:version="0.92.2 (5c3e80d, 2017-08-06)"><metadata
     id="metadata15"><rdf:RDF><cc:Work
         rdf:about=""><dc:format>image/svg+xml</dc:format><dc:type
           rdf:resource="http://purl.org/dc/dcmitype/StillImage" /></cc:Work></rdf:RDF></metadata><defs
     id="defs13" /><sodipodi:namedview
     pagecolor="#ffffff"
     bordercolor="#666666"
     borderopacity="1"
     objecttolerance="10"
     gridtolerance="10"
     guidetolerance="10"
     inkscape:pageopacity="0"
     inkscape:pageshadow="2"
     inkscape:window-width="1079"
     inkscape:window-height="843"
     id="namedview11"
     showgrid="false"
     inkscape:zoom="20.814041"
     inkscape:cx="5.5162948"
     inkscape:cy="9.3707765"
     inkscape:window-x="451"
     inkscape:window-y="152"
     inkscape:window-maximized="0"
     inkscape:current-layer="g6" /><g
     id="g8"><g
       id="g6"><path
         d="M5.669,0C5.669,0,0,0,0,5.669v11.339c0,0,0,5.669,5.669,5.669h11.338c0,0,5.67,0,5.67-5.669V5.669    c0,0,0-5.669-5.67-5.669H5.669z"
         id="path2"
         fill="#EA670C"
         style="fill:#d08c6b;fill-opacity:1" /><path
         fill="#FBE1CE"
         d="M11.338,20.038c1.35,0,2.225-0.976,2.225-2.275c-0.025-1.35-0.9-2.274-2.225-2.274s-2.25,0.925-2.25,2.274    c0,1.3,0.9,2.275,2.2,2.275H11.338z M12.763,14.239l0.55-11.322H9.363l0.55,11.322H12.763z"
         id="path4" /></g></g></svg>