<?xml version="1.0" encoding="utf-8"?>
<!-- Generator: Adobe Illustrator 14.0.0, SVG Export Plug-In . SVG Version: 6.00 Build 43363)  -->
<!DOCTYPE svg PUBLIC "-//W3C//DTD SVG 1.1//EN" "http://www.w3.org/Graphics/SVG/1.1/DTD/svg11.dtd">
<svg version="1.1" id="Vrstva_1" xmlns="http://www.w3.org/2000/svg" xmlns:xlink="http://www.w3.org/1999/xlink" x="0px" y="0px"
	 width="432.401px" height="131.272px" viewBox="0.038 0.372 432.401 131.272" enable-background="new 0.038 0.372 432.401 131.272"
	 xml:space="preserve">
<g>
	<path fill="#009EE0" d="M13.242,2.352c0,0-11.225,0-11.225,11.227V118.44c0,0,0,11.227,11.225,11.227h189.726
		c0,0,11.225,0,11.225-11.227V13.578c0,0,0-11.227-11.225-11.227H13.242z"/>
	<g>
		<g>
			<g>
				<g>
					<path fill="#009EE0" d="M13.242,2.352V0.372c-0.165,0.011-3.214-0.014-6.498,1.611C5.108,2.8,3.404,4.067,2.124,5.99
						c-1.285,1.917-2.092,4.456-2.086,7.588V118.44c0.011,0.165-0.013,3.215,1.612,6.498c0.816,1.637,2.083,3.34,4.005,4.62
						c1.918,1.282,4.456,2.092,7.588,2.087h189.726c0.165-0.012,3.214,0.014,6.498-1.611c1.635-0.816,3.34-2.082,4.621-4.006
						c1.285-1.918,2.092-4.453,2.086-7.588V13.578c-0.011-0.165,0.013-3.214-1.612-6.499c-0.816-1.636-2.083-3.34-4.005-4.621
						c-1.917-1.285-4.456-2.092-7.588-2.086H13.242V2.352v1.979h189.726c2.48,0.006,4.152,0.603,5.391,1.421
						c0.928,0.62,1.626,1.392,2.17,2.235c0.815,1.262,1.256,2.695,1.471,3.805c0.108,0.553,0.162,1.022,0.188,1.342
						c0.013,0.159,0.02,0.282,0.022,0.358l0.002,0.08v0.012l0.828-0.007h-0.828v0.007l0.828-0.007h-0.828V118.44
						c-0.006,2.479-0.601,4.15-1.421,5.393c-0.62,0.928-1.391,1.627-2.235,2.17c-1.262,0.813-2.696,1.256-3.805,1.472
						c-0.553,0.106-1.023,0.161-1.342,0.188c-0.16,0.014-0.282,0.021-0.358,0.021l-0.08,0.002h-0.012l0.007,0.835v-0.835h-0.007
						l0.007,0.835v-0.835H13.242c-2.48-0.005-4.152-0.602-5.391-1.421c-0.929-0.62-1.626-1.392-2.17-2.233
						c-0.815-1.264-1.256-2.695-1.471-3.806c-0.108-0.556-0.162-1.021-0.188-1.343c-0.013-0.159-0.019-0.281-0.022-0.357
						l-0.002-0.078v-0.014l-0.835,0.008h0.835v-0.008l-0.835,0.008h0.835V13.578c0.006-2.48,0.602-4.152,1.421-5.393
						c0.62-0.929,1.391-1.626,2.235-2.17c1.262-0.814,2.696-1.257,3.805-1.472c0.553-0.107,1.023-0.162,1.342-0.188
						c0.16-0.014,0.282-0.02,0.358-0.021l0.08-0.002h0.012l-0.007-0.821v0.821h0.007l-0.007-0.821v0.821v-1.98H13.242z"/>
				</g>
			</g>
		</g>
	</g>
	<path fill="#FFFFFF" d="M215.037,2.352c0,0-11.225,0-11.225,11.227V118.44c0,0,0,11.227,11.225,11.227h204.199
		c0,0,11.225,0,11.225-11.227V13.578c0,0,0-11.227-11.225-11.227H215.037z"/>
	<g>
		<g>
			<g>
				<g>
					<path fill="#009EE0" d="M215.037,2.352V0.372c-0.165,0.011-3.214-0.014-6.498,1.611c-1.635,0.815-3.34,2.083-4.62,4.006
						c-1.285,1.917-2.092,4.455-2.086,7.588v104.861c0.011,0.165-0.013,3.214,1.612,6.498c0.816,1.636,2.083,3.34,4.005,4.62
						c1.917,1.283,4.455,2.092,7.587,2.087h204.199c0.164-0.013,3.213,0.013,6.498-1.61c1.635-0.816,3.34-2.084,4.619-4.007
						c1.282-1.918,2.092-4.454,2.086-7.588V13.578c-0.013-0.165,0.014-3.214-1.611-6.498c-0.816-1.637-2.082-3.34-4.004-4.621
						c-1.918-1.285-4.457-2.092-7.588-2.086H215.037V2.352v1.979h204.199c2.479,0.006,4.147,0.603,5.391,1.421
						c0.928,0.62,1.627,1.392,2.17,2.235c0.814,1.263,1.256,2.695,1.471,3.805c0.107,0.553,0.162,1.022,0.188,1.342
						c0.014,0.159,0.02,0.282,0.021,0.358l0.002,0.08v0.012l0.828-0.007h-0.828v0.007l0.828-0.007h-0.828V118.44
						c-0.006,2.479-0.602,4.15-1.422,5.393c-0.616,0.928-1.391,1.627-2.231,2.17c-1.265,0.813-2.695,1.256-3.808,1.472
						c-0.553,0.106-1.02,0.161-1.342,0.188c-0.16,0.014-0.281,0.021-0.354,0.021l-0.08,0.002h-0.015l0.011,0.835v-0.835h-0.011
						l0.011,0.835v-0.835h-204.2c-2.48-0.005-4.151-0.602-5.391-1.421c-0.928-0.62-1.626-1.392-2.17-2.233
						c-0.814-1.264-1.255-2.695-1.47-3.806c-0.108-0.556-0.162-1.021-0.188-1.343c-0.013-0.159-0.019-0.281-0.022-0.357
						l-0.002-0.078v-0.014l-0.835,0.008h0.835v-0.008l-0.835,0.008h0.835V13.578c0.006-2.479,0.601-4.152,1.421-5.393
						c0.62-0.929,1.391-1.626,2.235-2.17c1.262-0.814,2.696-1.257,3.804-1.472c0.553-0.107,1.023-0.162,1.342-0.188
						c0.16-0.014,0.282-0.02,0.358-0.021l0.08-0.002h0.012l-0.007-0.828v0.828h0.007l-0.007-0.828v0.828v-1.98H215.037z"/>
				</g>
			</g>
		</g>
	</g>
	<rect x="193.211" y="2.352" fill="#009EE0" width="20.982" height="127.313"/>
	<g>
		<g>
			<g>
				<g>
					<polygon fill="#009EE0" points="193.211,2.352 191.231,2.352 191.231,131.645 216.173,131.645 216.173,0.372 191.231,0.372 
						191.231,2.352 193.211,2.352 193.211,4.332 212.213,4.332 212.213,127.684 195.191,127.684 195.191,2.352 193.211,2.352 
						193.211,4.332 					"/>
				</g>
			</g>
		</g>
	</g>
	<path fill="#E2007A" d="M277.824,64.959c0.832-7.247,5.346-16.871,16.036-16.871c11.765,0,14.613,10.336,14.495,16.871H277.824z
		 M318.099,72.444c0.236-1.188,0.355-2.73,0.355-4.869c0-10.575-4.871-26.971-23.762-26.971c-16.752,0-26.969,13.543-26.969,30.891
		c0,17.346,10.571,29.105,28.274,29.105c9.146,0,15.563-2.021,19.246-3.684l-1.9-7.483c-3.803,1.661-8.436,2.97-15.92,2.97
		c-10.571,0-19.483-5.82-19.723-19.959H318.099z M235.649,31.1v10.691h-8.909v7.96h8.909v31.365c0,6.771,1.188,11.881,4.039,15.088
		c2.494,2.731,6.416,4.396,11.287,4.396c4.039,0,7.246-0.714,9.269-1.427l-0.478-7.961c-1.545,0.478-3.207,0.713-6.061,0.713
		c-5.82,0-7.842-4.037-7.842-11.166V49.752h14.971v-7.96h-14.971V28.01L235.649,31.1z"/>
	<path fill="#E2007A" d="M389.972,31.1v10.691h-8.909v7.96h8.909v31.365c0,6.771,1.189,11.881,4.039,15.088
		c2.496,2.731,6.416,4.396,11.287,4.396c4.039,0,7.248-0.714,9.271-1.427l-0.479-7.961c-1.543,0.478-3.207,0.713-6.059,0.713
		c-5.82,0-7.843-4.037-7.843-11.166V49.752h14.972v-7.96h-14.972V28.01L389.972,31.1z M324.275,41.792l19.481,28.157l-20.434,29.346
		h11.521l8.316-12.951c2.258-3.443,4.158-6.532,6.059-9.979h0.238c2.02,3.444,3.92,6.652,6.178,9.979l8.558,12.951h11.762
		l-20.078-29.701l19.604-27.8h-11.404l-7.961,12.237c-2.021,3.089-3.92,6.059-5.82,9.386h-0.238
		c-1.897-3.208-3.682-6.06-5.938-9.268l-8.197-12.354h-11.645v-0.003H324.275z"/>
	<path fill="#FFFFFF" d="M148.477,100.701h10.455V66.128c0-1.782,0.238-3.563,0.713-4.871c1.901-5.82,7.247-10.691,14.019-10.691
		c9.861,0,13.306,7.723,13.306,16.988V100.7h10.455V66.484c0-19.723-12.356-24.475-20.316-24.475
		c-9.504,0-16.157,5.347-19.009,10.692h-0.238l-0.594-9.504h-9.267c0.356,4.752,0.475,9.504,0.475,15.563L148.477,100.701
		L148.477,100.701z M107.374,49.852c12.356,0,17.227,12.236,17.227,21.979c0,12.949-7.485,22.334-17.464,22.334
		c-10.217,0-17.346-9.504-17.346-22.099C89.791,61.257,95.137,49.852,107.374,49.852z M107.611,42.01
		c-15.801,0-28.513,11.286-28.513,30.415c0,18.178,12.118,29.582,27.563,29.582c13.782,0,28.632-9.268,28.632-30.531
		C135.293,54.01,124.125,42.01,107.611,42.01z M37.876,16.349H27.54v84.353h10.336V79.078l5.346-5.938l19.722,27.563h12.831
		L50.469,66.841l22.098-23.642H60.092l-16.989,19.84c-1.664,2.021-3.564,4.515-4.99,6.535h-0.238L37.876,16.349L37.876,16.349z"/>
</g>
</svg>
